%TF.GenerationSoftware,KiCad,Pcbnew,(5.1.6)-1*%
%TF.CreationDate,2023-06-21T17:15:11-04:00*%
%TF.ProjectId,PLCC68-to-PGA,504c4343-3638-42d7-946f-2d5047412e6b,rev?*%
%TF.SameCoordinates,Original*%
%TF.FileFunction,Copper,L2,Bot*%
%TF.FilePolarity,Positive*%
%FSLAX46Y46*%
G04 Gerber Fmt 4.6, Leading zero omitted, Abs format (unit mm)*
G04 Created by KiCad (PCBNEW (5.1.6)-1) date 2023-06-21 17:15:11*
%MOMM*%
%LPD*%
G01*
G04 APERTURE LIST*
%TA.AperFunction,SMDPad,CuDef*%
%ADD10R,0.700000X1.925000*%
%TD*%
%TA.AperFunction,SMDPad,CuDef*%
%ADD11R,1.925000X0.700000*%
%TD*%
%TA.AperFunction,ComponentPad*%
%ADD12C,1.422400*%
%TD*%
%TA.AperFunction,ComponentPad*%
%ADD13R,1.422400X1.422400*%
%TD*%
%TA.AperFunction,ViaPad*%
%ADD14C,0.500000*%
%TD*%
%TA.AperFunction,Conductor*%
%ADD15C,0.200000*%
%TD*%
G04 APERTURE END LIST*
D10*
%TO.P,U1,1*%
%TO.N,/1*%
X175889920Y-99698740D03*
%TO.P,U1,2*%
%TO.N,/2*%
X174619920Y-99698740D03*
%TO.P,U1,3*%
%TO.N,/3*%
X173349920Y-99698740D03*
%TO.P,U1,4*%
%TO.N,/4*%
X172079920Y-99698740D03*
%TO.P,U1,5*%
%TO.N,/5*%
X170809920Y-99698740D03*
%TO.P,U1,6*%
%TO.N,/6*%
X169539920Y-99698740D03*
%TO.P,U1,7*%
%TO.N,/7*%
X168269920Y-99698740D03*
%TO.P,U1,8*%
%TO.N,/8*%
X166999920Y-99698740D03*
%TO.P,U1,9*%
%TO.N,/9*%
X165729920Y-99698740D03*
%TO.P,U1,68*%
%TO.N,/68*%
X177159920Y-99698740D03*
%TO.P,U1,67*%
%TO.N,/67*%
X178429920Y-99698740D03*
%TO.P,U1,66*%
%TO.N,/66*%
X179699920Y-99698740D03*
%TO.P,U1,65*%
%TO.N,/65*%
X180969920Y-99698740D03*
%TO.P,U1,64*%
%TO.N,/64*%
X182239920Y-99698740D03*
%TO.P,U1,63*%
%TO.N,/63*%
X183509920Y-99698740D03*
%TO.P,U1,62*%
%TO.N,/62*%
X184779920Y-99698740D03*
%TO.P,U1,61*%
%TO.N,/61*%
X186049920Y-99698740D03*
D11*
%TO.P,U1,10*%
%TO.N,/10*%
X164217420Y-98186240D03*
%TO.P,U1,11*%
%TO.N,/11*%
X164217420Y-96916240D03*
%TO.P,U1,12*%
%TO.N,/12*%
X164217420Y-95646240D03*
%TO.P,U1,13*%
%TO.N,/13*%
X164217420Y-94376240D03*
%TO.P,U1,14*%
%TO.N,/14*%
X164217420Y-93106240D03*
%TO.P,U1,15*%
%TO.N,/15*%
X164217420Y-91836240D03*
%TO.P,U1,16*%
%TO.N,/16*%
X164217420Y-90566240D03*
%TO.P,U1,17*%
%TO.N,/17*%
X164217420Y-89296240D03*
%TO.P,U1,18*%
%TO.N,/18*%
X164217420Y-88026240D03*
%TO.P,U1,19*%
%TO.N,/19*%
X164217420Y-86756240D03*
%TO.P,U1,20*%
%TO.N,/20*%
X164217420Y-85486240D03*
%TO.P,U1,21*%
%TO.N,/21*%
X164217420Y-84216240D03*
%TO.P,U1,22*%
%TO.N,/22*%
X164217420Y-82946240D03*
%TO.P,U1,23*%
%TO.N,/23*%
X164217420Y-81676240D03*
%TO.P,U1,24*%
%TO.N,/24*%
X164217420Y-80406240D03*
%TO.P,U1,25*%
%TO.N,/25*%
X164217420Y-79136240D03*
%TO.P,U1,26*%
%TO.N,/26*%
X164217420Y-77866240D03*
D10*
%TO.P,U1,27*%
%TO.N,/27*%
X165729920Y-76353740D03*
%TO.P,U1,28*%
%TO.N,/28*%
X166999920Y-76353740D03*
%TO.P,U1,29*%
%TO.N,/29*%
X168269920Y-76353740D03*
%TO.P,U1,30*%
%TO.N,/30*%
X169539920Y-76353740D03*
%TO.P,U1,31*%
%TO.N,/31*%
X170809920Y-76353740D03*
%TO.P,U1,32*%
%TO.N,/32*%
X172079920Y-76353740D03*
%TO.P,U1,33*%
%TO.N,/33*%
X173349920Y-76353740D03*
%TO.P,U1,34*%
%TO.N,/34*%
X174619920Y-76353740D03*
%TO.P,U1,35*%
%TO.N,/35*%
X175889920Y-76353740D03*
%TO.P,U1,36*%
%TO.N,/36*%
X177159920Y-76353740D03*
%TO.P,U1,37*%
%TO.N,/37*%
X178429920Y-76353740D03*
%TO.P,U1,38*%
%TO.N,/38*%
X179699920Y-76353740D03*
%TO.P,U1,39*%
%TO.N,/39*%
X180969920Y-76353740D03*
%TO.P,U1,40*%
%TO.N,/40*%
X182239920Y-76353740D03*
%TO.P,U1,41*%
%TO.N,/41*%
X183509920Y-76353740D03*
%TO.P,U1,42*%
%TO.N,/42*%
X184779920Y-76353740D03*
%TO.P,U1,43*%
%TO.N,/43*%
X186049920Y-76353740D03*
D11*
%TO.P,U1,44*%
%TO.N,/44*%
X187562420Y-77866240D03*
%TO.P,U1,45*%
%TO.N,/45*%
X187562420Y-79136240D03*
%TO.P,U1,46*%
%TO.N,/46*%
X187562420Y-80406240D03*
%TO.P,U1,47*%
%TO.N,/47*%
X187562420Y-81676240D03*
%TO.P,U1,48*%
%TO.N,/48*%
X187562420Y-82946240D03*
%TO.P,U1,49*%
%TO.N,/49*%
X187562420Y-84216240D03*
%TO.P,U1,50*%
%TO.N,/50*%
X187562420Y-85486240D03*
%TO.P,U1,51*%
%TO.N,/51*%
X187562420Y-86756240D03*
%TO.P,U1,52*%
%TO.N,/52*%
X187562420Y-88026240D03*
%TO.P,U1,53*%
%TO.N,/53*%
X187562420Y-89296240D03*
%TO.P,U1,54*%
%TO.N,/54*%
X187562420Y-90566240D03*
%TO.P,U1,55*%
%TO.N,/55*%
X187562420Y-91836240D03*
%TO.P,U1,56*%
%TO.N,/56*%
X187562420Y-93106240D03*
%TO.P,U1,57*%
%TO.N,/57*%
X187562420Y-94376240D03*
%TO.P,U1,58*%
%TO.N,/58*%
X187562420Y-95646240D03*
%TO.P,U1,59*%
%TO.N,/59*%
X187562420Y-96916240D03*
%TO.P,U1,60*%
%TO.N,/60*%
X187562420Y-98186240D03*
%TD*%
D12*
%TO.P,U2,2*%
%TO.N,/2*%
X175900080Y-109961680D03*
%TO.P,U2,4*%
%TO.N,/4*%
X173360080Y-109961680D03*
%TO.P,U2,6*%
%TO.N,/6*%
X170820080Y-109961680D03*
%TO.P,U2,8*%
%TO.N,/8*%
X168280080Y-109961680D03*
%TO.P,U2,68*%
%TO.N,/68*%
X178440080Y-109961680D03*
%TO.P,U2,66*%
%TO.N,/66*%
X180980080Y-109961680D03*
%TO.P,U2,64*%
%TO.N,/64*%
X183520080Y-109961680D03*
%TO.P,U2,62*%
%TO.N,/62*%
X186060080Y-109961680D03*
D13*
%TO.P,U2,1*%
%TO.N,/1*%
X175900080Y-107421680D03*
D12*
%TO.P,U2,3*%
%TO.N,/3*%
X173360080Y-107421680D03*
%TO.P,U2,5*%
%TO.N,/5*%
X170820080Y-107421680D03*
%TO.P,U2,7*%
%TO.N,/7*%
X168280080Y-107421680D03*
%TO.P,U2,9*%
%TO.N,/9*%
X165740080Y-107421680D03*
%TO.P,U2,67*%
%TO.N,/67*%
X178440080Y-107421680D03*
%TO.P,U2,65*%
%TO.N,/65*%
X180980080Y-107421680D03*
%TO.P,U2,63*%
%TO.N,/63*%
X183520080Y-107421680D03*
%TO.P,U2,11*%
%TO.N,/11*%
X165740080Y-109961680D03*
%TO.P,U2,13*%
%TO.N,/13*%
X165740080Y-112501680D03*
%TO.P,U2,15*%
%TO.N,/15*%
X165740080Y-115041680D03*
%TO.P,U2,17*%
%TO.N,/17*%
X165740080Y-117581680D03*
%TO.P,U2,19*%
%TO.N,/19*%
X165740080Y-120121680D03*
%TO.P,U2,21*%
%TO.N,/21*%
X165740080Y-122661680D03*
%TO.P,U2,23*%
%TO.N,/23*%
X165740080Y-125201680D03*
%TO.P,U2,25*%
%TO.N,/25*%
X165740080Y-127741680D03*
%TO.P,U2,10*%
%TO.N,/10*%
X163200080Y-109961680D03*
%TO.P,U2,12*%
%TO.N,/12*%
X163200080Y-112501680D03*
%TO.P,U2,14*%
%TO.N,/14*%
X163200080Y-115041680D03*
%TO.P,U2,16*%
%TO.N,/16*%
X163200080Y-117581680D03*
%TO.P,U2,18*%
%TO.N,/18*%
X163200080Y-120121680D03*
%TO.P,U2,20*%
%TO.N,/20*%
X163200080Y-122661680D03*
%TO.P,U2,22*%
%TO.N,/22*%
X163200080Y-125201680D03*
%TO.P,U2,24*%
%TO.N,/24*%
X163200080Y-127741680D03*
%TO.P,U2,26*%
%TO.N,/26*%
X163200080Y-130281680D03*
%TO.P,U2,28*%
%TO.N,/28*%
X165740080Y-130281680D03*
%TO.P,U2,30*%
%TO.N,/30*%
X168280080Y-130281680D03*
%TO.P,U2,32*%
%TO.N,/32*%
X170820080Y-130281680D03*
%TO.P,U2,34*%
%TO.N,/34*%
X173360080Y-130281680D03*
%TO.P,U2,36*%
%TO.N,/36*%
X175900080Y-130281680D03*
%TO.P,U2,38*%
%TO.N,/38*%
X178440080Y-130281680D03*
%TO.P,U2,40*%
%TO.N,/40*%
X180980080Y-130281680D03*
%TO.P,U2,42*%
%TO.N,/42*%
X183520080Y-130281680D03*
%TO.P,U2,44*%
%TO.N,/44*%
X188600080Y-130281680D03*
%TO.P,U2,27*%
%TO.N,/27*%
X165740080Y-132821680D03*
%TO.P,U2,29*%
%TO.N,/29*%
X168280080Y-132821680D03*
%TO.P,U2,31*%
%TO.N,/31*%
X170820080Y-132821680D03*
%TO.P,U2,33*%
%TO.N,/33*%
X173360080Y-132821680D03*
%TO.P,U2,35*%
%TO.N,/35*%
X175900080Y-132821680D03*
%TO.P,U2,37*%
%TO.N,/37*%
X178440080Y-132821680D03*
%TO.P,U2,39*%
%TO.N,/39*%
X180980080Y-132821680D03*
%TO.P,U2,41*%
%TO.N,/41*%
X183520080Y-132821680D03*
%TO.P,U2,43*%
%TO.N,/43*%
X186060080Y-132821680D03*
%TO.P,U2,45*%
%TO.N,/45*%
X186060080Y-130281680D03*
%TO.P,U2,47*%
%TO.N,/47*%
X186060080Y-127741680D03*
%TO.P,U2,49*%
%TO.N,/49*%
X186060080Y-125201680D03*
%TO.P,U2,51*%
%TO.N,/51*%
X186060080Y-122661680D03*
%TO.P,U2,53*%
%TO.N,/53*%
X186060080Y-120121680D03*
%TO.P,U2,55*%
%TO.N,/55*%
X186060080Y-117581680D03*
%TO.P,U2,57*%
%TO.N,/57*%
X186060080Y-115041680D03*
%TO.P,U2,59*%
%TO.N,/59*%
X186060080Y-112501680D03*
%TO.P,U2,61*%
%TO.N,/61*%
X186060080Y-107421680D03*
%TO.P,U2,46*%
%TO.N,/46*%
X188600080Y-127741680D03*
%TO.P,U2,48*%
%TO.N,/48*%
X188600080Y-125201680D03*
%TO.P,U2,50*%
%TO.N,/50*%
X188600080Y-122661680D03*
%TO.P,U2,52*%
%TO.N,/52*%
X188600080Y-120121680D03*
%TO.P,U2,54*%
%TO.N,/54*%
X188600080Y-117581680D03*
%TO.P,U2,56*%
%TO.N,/56*%
X188600080Y-115041680D03*
%TO.P,U2,58*%
%TO.N,/58*%
X188600080Y-112501680D03*
%TO.P,U2,60*%
%TO.N,/60*%
X188600080Y-109961680D03*
%TD*%
D14*
%TO.N,/27*%
X165735000Y-77962760D03*
%TO.N,/28*%
X167005000Y-77947520D03*
%TO.N,/29*%
X168269920Y-77927200D03*
%TO.N,/30*%
X169539920Y-77917040D03*
%TO.N,/31*%
X170809920Y-77906880D03*
%TO.N,/32*%
X172079920Y-77917040D03*
%TO.N,/33*%
X173349920Y-77906880D03*
%TO.N,/34*%
X174619920Y-77896720D03*
%TO.N,/35*%
X175889920Y-77901800D03*
%TO.N,/36*%
X177159920Y-77896720D03*
%TO.N,/37*%
X178429920Y-77901800D03*
%TO.N,/38*%
X179694840Y-77896720D03*
%TO.N,/39*%
X180964840Y-77886560D03*
%TO.N,/40*%
X182239920Y-77891640D03*
%TO.N,/41*%
X183515000Y-77881480D03*
%TO.N,/42*%
X184779920Y-77901800D03*
%TO.N,/43*%
X186049920Y-77891640D03*
%TD*%
D15*
%TO.N,/1*%
X175889920Y-107411520D02*
X175900080Y-107421680D01*
X175889920Y-99698740D02*
X175889920Y-107411520D01*
%TO.N,/2*%
X174619920Y-108681520D02*
X175900080Y-109961680D01*
X174619920Y-99698740D02*
X174619920Y-108681520D01*
%TO.N,/3*%
X173349920Y-107411520D02*
X173360080Y-107421680D01*
X173349920Y-99698740D02*
X173349920Y-107411520D01*
%TO.N,/4*%
X172079920Y-108681520D02*
X173360080Y-109961680D01*
X172079920Y-99698740D02*
X172079920Y-108681520D01*
%TO.N,/5*%
X170809920Y-107411520D02*
X170820080Y-107421680D01*
X170809920Y-99698740D02*
X170809920Y-107411520D01*
%TO.N,/6*%
X169539920Y-108681520D02*
X170820080Y-109961680D01*
X169539920Y-99698740D02*
X169539920Y-108681520D01*
%TO.N,/7*%
X168269920Y-107411520D02*
X168280080Y-107421680D01*
X168269920Y-99698740D02*
X168269920Y-107411520D01*
%TO.N,/8*%
X166999920Y-108681520D02*
X168280080Y-109961680D01*
X166999920Y-99698740D02*
X166999920Y-108681520D01*
%TO.N,/9*%
X165729920Y-107411520D02*
X165740080Y-107421680D01*
X165729920Y-99698740D02*
X165729920Y-107411520D01*
%TO.N,/68*%
X177159920Y-108681520D02*
X178440080Y-109961680D01*
X177159920Y-99698740D02*
X177159920Y-108681520D01*
%TO.N,/67*%
X178429920Y-107411520D02*
X178440080Y-107421680D01*
X178429920Y-99698740D02*
X178429920Y-107411520D01*
%TO.N,/66*%
X179699920Y-108681520D02*
X180980080Y-109961680D01*
X179699920Y-99698740D02*
X179699920Y-108681520D01*
%TO.N,/65*%
X180969920Y-107411520D02*
X180980080Y-107421680D01*
X180969920Y-99698740D02*
X180969920Y-107411520D01*
%TO.N,/64*%
X182239920Y-108681520D02*
X183520080Y-109961680D01*
X182239920Y-99698740D02*
X182239920Y-108681520D01*
%TO.N,/63*%
X183509920Y-107411520D02*
X183520080Y-107421680D01*
X183509920Y-99698740D02*
X183509920Y-107411520D01*
%TO.N,/62*%
X184779920Y-108681520D02*
X186060080Y-109961680D01*
X184779920Y-99698740D02*
X184779920Y-108681520D01*
%TO.N,/61*%
X186049920Y-107411520D02*
X186060080Y-107421680D01*
X186049920Y-99698740D02*
X186049920Y-107411520D01*
%TO.N,/10*%
X162966400Y-98186240D02*
X162565080Y-98587560D01*
X162565080Y-98587560D02*
X162565080Y-109326680D01*
X162565080Y-109326680D02*
X163200080Y-109961680D01*
X164217420Y-98186240D02*
X162966400Y-98186240D01*
%TO.N,/11*%
X164480240Y-111221520D02*
X165740080Y-109961680D01*
X163054920Y-96916240D02*
X162165069Y-97806091D01*
X162165069Y-110423247D02*
X162963342Y-111221520D01*
X162165069Y-97806091D02*
X162165069Y-110423247D01*
X164217420Y-96916240D02*
X163054920Y-96916240D01*
X162963342Y-111221520D02*
X164480240Y-111221520D01*
%TO.N,/12*%
X163054920Y-95646240D02*
X161733954Y-96967206D01*
X161733954Y-111035554D02*
X163200080Y-112501680D01*
X161733954Y-96967206D02*
X161733954Y-111035554D01*
X164217420Y-95646240D02*
X163054920Y-95646240D01*
%TO.N,/13*%
X164505640Y-113736120D02*
X165740080Y-112501680D01*
X164217420Y-94376240D02*
X163054920Y-94376240D01*
X161333943Y-112560863D02*
X162509200Y-113736120D01*
X162509200Y-113736120D02*
X164505640Y-113736120D01*
X163054920Y-94376240D02*
X161333943Y-96097217D01*
X161333943Y-96097217D02*
X161333943Y-112560863D01*
%TO.N,/14*%
X160933932Y-113395292D02*
X162580320Y-115041680D01*
X160933932Y-95227228D02*
X160933932Y-113395292D01*
X162580320Y-115041680D02*
X163200080Y-115041680D01*
X164217420Y-93106240D02*
X163054920Y-93106240D01*
X163054920Y-93106240D02*
X160933932Y-95227228D01*
%TO.N,/15*%
X164465000Y-116316760D02*
X165740080Y-115041680D01*
X160533921Y-114275441D02*
X162575240Y-116316760D01*
X164217420Y-91836240D02*
X163054920Y-91836240D01*
X163054920Y-91836240D02*
X160533921Y-94357239D01*
X160533921Y-94357239D02*
X160533921Y-114275441D01*
X162575240Y-116316760D02*
X164465000Y-116316760D01*
%TO.N,/16*%
X160133910Y-115130190D02*
X162585400Y-117581680D01*
X162585400Y-117581680D02*
X163200080Y-117581680D01*
X160133910Y-93487250D02*
X160133910Y-115130190D01*
X164217420Y-90566240D02*
X163054920Y-90566240D01*
X163054920Y-90566240D02*
X160133910Y-93487250D01*
%TO.N,/17*%
X164515800Y-118805960D02*
X165740080Y-117581680D01*
X163054920Y-89296240D02*
X159733899Y-92617261D01*
X159733899Y-115964619D02*
X162575240Y-118805960D01*
X164217420Y-89296240D02*
X163054920Y-89296240D01*
X159733899Y-92617261D02*
X159733899Y-115964619D01*
X162575240Y-118805960D02*
X164515800Y-118805960D01*
%TO.N,/18*%
X159333888Y-91747272D02*
X159333888Y-116799048D01*
X164217420Y-88026240D02*
X163054920Y-88026240D01*
X162656520Y-120121680D02*
X163200080Y-120121680D01*
X159333888Y-116799048D02*
X162656520Y-120121680D01*
X163054920Y-88026240D02*
X159333888Y-91747272D01*
%TO.N,/19*%
X163054920Y-86756240D02*
X158933877Y-90877283D01*
X164217420Y-86756240D02*
X163054920Y-86756240D01*
X164475160Y-121386600D02*
X165740080Y-120121680D01*
X158933877Y-117745237D02*
X162575240Y-121386600D01*
X158933877Y-90877283D02*
X158933877Y-117745237D01*
X162575240Y-121386600D02*
X164475160Y-121386600D01*
%TO.N,/20*%
X158533866Y-118625386D02*
X162570160Y-122661680D01*
X158533866Y-90007294D02*
X158533866Y-118625386D01*
X164217420Y-85486240D02*
X163054920Y-85486240D01*
X162570160Y-122661680D02*
X163200080Y-122661680D01*
X163054920Y-85486240D02*
X158533866Y-90007294D01*
%TO.N,/21*%
X164505640Y-123896120D02*
X165740080Y-122661680D01*
X163054920Y-84216240D02*
X158133855Y-89137305D01*
X164217420Y-84216240D02*
X163054920Y-84216240D01*
X158133855Y-89137305D02*
X158133855Y-119454735D01*
X158133855Y-119454735D02*
X162575240Y-123896120D01*
X162575240Y-123896120D02*
X164505640Y-123896120D01*
%TO.N,/22*%
X157733844Y-120314564D02*
X162620960Y-125201680D01*
X162620960Y-125201680D02*
X163200080Y-125201680D01*
X157733844Y-88267316D02*
X157733844Y-120314564D01*
X164217420Y-82946240D02*
X163054920Y-82946240D01*
X163054920Y-82946240D02*
X157733844Y-88267316D01*
%TO.N,/23*%
X164485320Y-126456440D02*
X165740080Y-125201680D01*
X163054920Y-81676240D02*
X157333833Y-87397327D01*
X164217420Y-81676240D02*
X163054920Y-81676240D01*
X157333833Y-121027073D02*
X162763200Y-126456440D01*
X157333833Y-87397327D02*
X157333833Y-121027073D01*
X162763200Y-126456440D02*
X164485320Y-126456440D01*
%TO.N,/24*%
X156933822Y-121836102D02*
X162839400Y-127741680D01*
X162839400Y-127741680D02*
X163200080Y-127741680D01*
X156933822Y-86527338D02*
X156933822Y-121836102D01*
X164217420Y-80406240D02*
X163054920Y-80406240D01*
X163054920Y-80406240D02*
X156933822Y-86527338D01*
%TO.N,/25*%
X163054920Y-79136240D02*
X156533811Y-85657349D01*
X164490400Y-128991360D02*
X165740080Y-127741680D01*
X164217420Y-79136240D02*
X163054920Y-79136240D01*
X162900360Y-128991360D02*
X164490400Y-128991360D01*
X156533811Y-85657349D02*
X156533811Y-122624811D01*
X156533811Y-122624811D02*
X162900360Y-128991360D01*
%TO.N,/26*%
X156133800Y-123362720D02*
X163052760Y-130281680D01*
X163052760Y-130281680D02*
X163200080Y-130281680D01*
X156133800Y-84787360D02*
X156133800Y-123362720D01*
X164217420Y-77866240D02*
X163054920Y-77866240D01*
X163054920Y-77866240D02*
X156133800Y-84787360D01*
%TO.N,/27*%
X165735000Y-76358820D02*
X165729920Y-76353740D01*
X165735000Y-77962760D02*
X165735000Y-76358820D01*
%TO.N,/28*%
X167005000Y-76358820D02*
X166999920Y-76353740D01*
X167005000Y-77947520D02*
X167005000Y-76358820D01*
%TO.N,/29*%
X168269920Y-77927200D02*
X168269920Y-76353740D01*
%TO.N,/30*%
X169539920Y-77917040D02*
X169539920Y-76353740D01*
%TO.N,/31*%
X170809920Y-77906880D02*
X170809920Y-76353740D01*
%TO.N,/32*%
X172079920Y-77917040D02*
X172079920Y-76353740D01*
%TO.N,/33*%
X173349920Y-77906880D02*
X173349920Y-76353740D01*
%TO.N,/34*%
X174619920Y-77896720D02*
X174619920Y-76353740D01*
%TO.N,/35*%
X175889920Y-77901800D02*
X175889920Y-76353740D01*
%TO.N,/36*%
X177159920Y-77896720D02*
X177159920Y-76353740D01*
%TO.N,/37*%
X178429920Y-77901800D02*
X178429920Y-76353740D01*
%TO.N,/38*%
X179694840Y-76358820D02*
X179699920Y-76353740D01*
X179694840Y-77896720D02*
X179694840Y-76358820D01*
%TO.N,/39*%
X180964840Y-76358820D02*
X180969920Y-76353740D01*
X180964840Y-77886560D02*
X180964840Y-76358820D01*
%TO.N,/40*%
X182239920Y-77891640D02*
X182239920Y-76353740D01*
%TO.N,/41*%
X183515000Y-76358820D02*
X183509920Y-76353740D01*
X183515000Y-77881480D02*
X183515000Y-76358820D01*
%TO.N,/42*%
X184779920Y-77901800D02*
X184779920Y-76353740D01*
%TO.N,/43*%
X186049920Y-77891640D02*
X186049920Y-76353740D01*
%TO.N,/44*%
X189118240Y-130281680D02*
X188600080Y-130281680D01*
X195630800Y-123769120D02*
X189118240Y-130281680D01*
X195630800Y-84772120D02*
X195630800Y-123769120D01*
X187562420Y-77866240D02*
X188724920Y-77866240D01*
X188724920Y-77866240D02*
X195630800Y-84772120D01*
%TO.N,/45*%
X187330080Y-129011680D02*
X186060080Y-130281680D01*
X187562420Y-79136240D02*
X188724920Y-79136240D01*
X195230789Y-85642109D02*
X195230789Y-122936220D01*
X188724920Y-79136240D02*
X195230789Y-85642109D01*
X195230789Y-122936220D02*
X189155329Y-129011680D01*
X189155329Y-129011680D02*
X187330080Y-129011680D01*
%TO.N,/46*%
X194830778Y-122013902D02*
X189103000Y-127741680D01*
X194830778Y-86512098D02*
X194830778Y-122013902D01*
X189103000Y-127741680D02*
X188600080Y-127741680D01*
X187562420Y-80406240D02*
X188724920Y-80406240D01*
X188724920Y-80406240D02*
X194830778Y-86512098D01*
%TO.N,/47*%
X187335160Y-126466600D02*
X186060080Y-127741680D01*
X188724920Y-81676240D02*
X194430767Y-87382087D01*
X189230000Y-126466600D02*
X187335160Y-126466600D01*
X194430767Y-121265833D02*
X189230000Y-126466600D01*
X187562420Y-81676240D02*
X188724920Y-81676240D01*
X194430767Y-87382087D02*
X194430767Y-121265833D01*
%TO.N,/48*%
X189224920Y-125201680D02*
X188600080Y-125201680D01*
X194030756Y-120395844D02*
X189224920Y-125201680D01*
X194030756Y-88252076D02*
X194030756Y-120395844D01*
X187562420Y-82946240D02*
X188724920Y-82946240D01*
X188724920Y-82946240D02*
X194030756Y-88252076D01*
%TO.N,/49*%
X187274200Y-123987560D02*
X186060080Y-125201680D01*
X188724920Y-84216240D02*
X193630745Y-89122065D01*
X187562420Y-84216240D02*
X188724920Y-84216240D01*
X189204600Y-123987560D02*
X187274200Y-123987560D01*
X193630745Y-89122065D02*
X193630745Y-119561415D01*
X193630745Y-119561415D02*
X189204600Y-123987560D01*
%TO.N,/50*%
X189265560Y-122661680D02*
X188600080Y-122661680D01*
X193230734Y-118696506D02*
X189265560Y-122661680D01*
X187562420Y-85486240D02*
X188724920Y-85486240D01*
X193230734Y-89992054D02*
X193230734Y-118696506D01*
X188724920Y-85486240D02*
X193230734Y-89992054D01*
%TO.N,/51*%
X187309760Y-121412000D02*
X186060080Y-122661680D01*
X187562420Y-86756240D02*
X188724920Y-86756240D01*
X192830723Y-90862043D02*
X192830723Y-117892557D01*
X189311280Y-121412000D02*
X187309760Y-121412000D01*
X188724920Y-86756240D02*
X192830723Y-90862043D01*
X192830723Y-117892557D02*
X189311280Y-121412000D01*
%TO.N,/52*%
X189250320Y-120121680D02*
X188600080Y-120121680D01*
X192430712Y-91732032D02*
X192430712Y-116941288D01*
X192430712Y-116941288D02*
X189250320Y-120121680D01*
X187562420Y-88026240D02*
X188724920Y-88026240D01*
X188724920Y-88026240D02*
X192430712Y-91732032D01*
%TO.N,/53*%
X187284360Y-118897400D02*
X186060080Y-120121680D01*
X188724920Y-89296240D02*
X192030701Y-92602021D01*
X187562420Y-89296240D02*
X188724920Y-89296240D01*
X192030701Y-116000179D02*
X189133480Y-118897400D01*
X192030701Y-92602021D02*
X192030701Y-116000179D01*
X189133480Y-118897400D02*
X187284360Y-118897400D01*
%TO.N,/54*%
X188955680Y-117581680D02*
X188600080Y-117581680D01*
X191630690Y-114906670D02*
X188955680Y-117581680D01*
X191630690Y-93472010D02*
X191630690Y-114906670D01*
X187562420Y-90566240D02*
X188724920Y-90566240D01*
X188724920Y-90566240D02*
X191630690Y-93472010D01*
%TO.N,/55*%
X187289440Y-116352320D02*
X186060080Y-117581680D01*
X188724920Y-91836240D02*
X191230679Y-94341999D01*
X187562420Y-91836240D02*
X188724920Y-91836240D01*
X188879480Y-116352320D02*
X187289440Y-116352320D01*
X191230679Y-94341999D02*
X191230679Y-114001121D01*
X191230679Y-114001121D02*
X188879480Y-116352320D01*
%TO.N,/56*%
X190830668Y-113054932D02*
X188843920Y-115041680D01*
X190830668Y-95211988D02*
X190830668Y-113054932D01*
X187562420Y-93106240D02*
X188724920Y-93106240D01*
X188843920Y-115041680D02*
X188600080Y-115041680D01*
X188724920Y-93106240D02*
X190830668Y-95211988D01*
%TO.N,/57*%
X187294520Y-113807240D02*
X186060080Y-115041680D01*
X188724920Y-94376240D02*
X190430657Y-96081977D01*
X187562420Y-94376240D02*
X188724920Y-94376240D01*
X190430657Y-112167681D02*
X188791098Y-113807240D01*
X190430657Y-96081977D02*
X190430657Y-112167681D01*
X188791098Y-113807240D02*
X187294520Y-113807240D01*
%TO.N,/58*%
X190030646Y-111284474D02*
X188813440Y-112501680D01*
X190030646Y-96951966D02*
X190030646Y-111284474D01*
X188813440Y-112501680D02*
X188600080Y-112501680D01*
X187562420Y-95646240D02*
X188724920Y-95646240D01*
X188724920Y-95646240D02*
X190030646Y-96951966D01*
%TO.N,/59*%
X187299600Y-111262160D02*
X186060080Y-112501680D01*
X188724920Y-96916240D02*
X189630011Y-97821331D01*
X187562420Y-96916240D02*
X188724920Y-96916240D01*
X189630011Y-97821331D02*
X189630011Y-110428327D01*
X189630011Y-110428327D02*
X188796178Y-111262160D01*
X188796178Y-111262160D02*
X187299600Y-111262160D01*
%TO.N,/60*%
X189230000Y-98475800D02*
X189230000Y-109331760D01*
X188940440Y-98186240D02*
X189230000Y-98475800D01*
X187562420Y-98186240D02*
X188940440Y-98186240D01*
X189230000Y-109331760D02*
X188600080Y-109961680D01*
%TD*%
M02*
