%FSLAX45Y45*%
G04 Gerber Fmt 4.5, Leading zero omitted, Abs format (unit mm)*
G04 Created by KiCad (PCBNEW (5.1.6)-1) date 2023-06-21 17:15:14*
%MOMM*%
%LPD*%
G01*
G04 APERTURE LIST*
%TA.AperFunction,Profile*%
%ADD10C,0.050000*%
%TD*%
%ADD11C,0.200000*%
%ADD12C,0.300000*%
G04 APERTURE END LIST*
D10*
X15560548Y-7366000D02*
G75*
G02*
X15735318Y-7191230I174770J0D01*
G01*
X15734810Y-13630167D02*
G75*
G02*
X15560548Y-13456412I0J174263D01*
G01*
X19612864Y-13455378D02*
G75*
G02*
X19438094Y-13630148I-174770J0D01*
G01*
X19438602Y-7191230D02*
G75*
G02*
X19613372Y-7366000I0J-174770D01*
G01*
X19612864Y-12392660D02*
X19613372Y-7366000D01*
X15735318Y-7191230D02*
X19438602Y-7191230D01*
X15560548Y-13456412D02*
X15560548Y-7366000D01*
X19438094Y-13630148D02*
X15734810Y-13630167D01*
X19612864Y-12392660D02*
X19612864Y-13455378D01*
D11*
X16553500Y-7776276D02*
X16593500Y-7816276D01*
X16593500Y-7776276D02*
X16553500Y-7816276D01*
X16680500Y-7774752D02*
X16720500Y-7814752D01*
X16720500Y-7774752D02*
X16680500Y-7814752D01*
X16806992Y-7772720D02*
X16846992Y-7812720D01*
X16846992Y-7772720D02*
X16806992Y-7812720D01*
X16933992Y-7771704D02*
X16973992Y-7811704D01*
X16973992Y-7771704D02*
X16933992Y-7811704D01*
X17060992Y-7770688D02*
X17100992Y-7810688D01*
X17100992Y-7770688D02*
X17060992Y-7810688D01*
X17187992Y-7771704D02*
X17227992Y-7811704D01*
X17227992Y-7771704D02*
X17187992Y-7811704D01*
X17314992Y-7770688D02*
X17354992Y-7810688D01*
X17354992Y-7770688D02*
X17314992Y-7810688D01*
X17441992Y-7769672D02*
X17481992Y-7809672D01*
X17481992Y-7769672D02*
X17441992Y-7809672D01*
X17568992Y-7770180D02*
X17608992Y-7810180D01*
X17608992Y-7770180D02*
X17568992Y-7810180D01*
X17695992Y-7769672D02*
X17735992Y-7809672D01*
X17735992Y-7769672D02*
X17695992Y-7809672D01*
X17822992Y-7770180D02*
X17862992Y-7810180D01*
X17862992Y-7770180D02*
X17822992Y-7810180D01*
X17949484Y-7769672D02*
X17989484Y-7809672D01*
X17989484Y-7769672D02*
X17949484Y-7809672D01*
X18076484Y-7768656D02*
X18116484Y-7808656D01*
X18116484Y-7768656D02*
X18076484Y-7808656D01*
X18203992Y-7769164D02*
X18243992Y-7809164D01*
X18243992Y-7769164D02*
X18203992Y-7809164D01*
X18331500Y-7768148D02*
X18371500Y-7808148D01*
X18371500Y-7768148D02*
X18331500Y-7808148D01*
X18457992Y-7770180D02*
X18497992Y-7810180D01*
X18497992Y-7770180D02*
X18457992Y-7810180D01*
X18584992Y-7769164D02*
X18624992Y-7809164D01*
X18624992Y-7769164D02*
X18584992Y-7809164D01*
X16360008Y-10996168D02*
G75*
G03*
X16360008Y-10996168I-40000J0D01*
G01*
X16360008Y-11250168D02*
G75*
G03*
X16360008Y-11250168I-40000J0D01*
G01*
X16360008Y-11504168D02*
G75*
G03*
X16360008Y-11504168I-40000J0D01*
G01*
X16360008Y-11758168D02*
G75*
G03*
X16360008Y-11758168I-40000J0D01*
G01*
X16360008Y-12012168D02*
G75*
G03*
X16360008Y-12012168I-40000J0D01*
G01*
X16360008Y-12266168D02*
G75*
G03*
X16360008Y-12266168I-40000J0D01*
G01*
X16360008Y-12520168D02*
G75*
G03*
X16360008Y-12520168I-40000J0D01*
G01*
X16360008Y-12774168D02*
G75*
G03*
X16360008Y-12774168I-40000J0D01*
G01*
X16360008Y-13028168D02*
G75*
G03*
X16360008Y-13028168I-40000J0D01*
G01*
X16614008Y-10742168D02*
G75*
G03*
X16614008Y-10742168I-40000J0D01*
G01*
X16614008Y-10996168D02*
G75*
G03*
X16614008Y-10996168I-40000J0D01*
G01*
X16614008Y-11250168D02*
G75*
G03*
X16614008Y-11250168I-40000J0D01*
G01*
X16614008Y-11504168D02*
G75*
G03*
X16614008Y-11504168I-40000J0D01*
G01*
X16614008Y-11758168D02*
G75*
G03*
X16614008Y-11758168I-40000J0D01*
G01*
X16614008Y-12012168D02*
G75*
G03*
X16614008Y-12012168I-40000J0D01*
G01*
X16614008Y-12266168D02*
G75*
G03*
X16614008Y-12266168I-40000J0D01*
G01*
X16614008Y-12520168D02*
G75*
G03*
X16614008Y-12520168I-40000J0D01*
G01*
X16614008Y-12774168D02*
G75*
G03*
X16614008Y-12774168I-40000J0D01*
G01*
X16614008Y-13028168D02*
G75*
G03*
X16614008Y-13028168I-40000J0D01*
G01*
X16614008Y-13282168D02*
G75*
G03*
X16614008Y-13282168I-40000J0D01*
G01*
X16868008Y-10742168D02*
G75*
G03*
X16868008Y-10742168I-40000J0D01*
G01*
X16868008Y-10996168D02*
G75*
G03*
X16868008Y-10996168I-40000J0D01*
G01*
X16868008Y-13028168D02*
G75*
G03*
X16868008Y-13028168I-40000J0D01*
G01*
X16868008Y-13282168D02*
G75*
G03*
X16868008Y-13282168I-40000J0D01*
G01*
X17122008Y-10742168D02*
G75*
G03*
X17122008Y-10742168I-40000J0D01*
G01*
X17122008Y-10996168D02*
G75*
G03*
X17122008Y-10996168I-40000J0D01*
G01*
X17122008Y-13028168D02*
G75*
G03*
X17122008Y-13028168I-40000J0D01*
G01*
X17122008Y-13282168D02*
G75*
G03*
X17122008Y-13282168I-40000J0D01*
G01*
X17376008Y-10742168D02*
G75*
G03*
X17376008Y-10742168I-40000J0D01*
G01*
X17376008Y-10996168D02*
G75*
G03*
X17376008Y-10996168I-40000J0D01*
G01*
X17376008Y-13028168D02*
G75*
G03*
X17376008Y-13028168I-40000J0D01*
G01*
X17376008Y-13282168D02*
G75*
G03*
X17376008Y-13282168I-40000J0D01*
G01*
X17630008Y-10742168D02*
G75*
G03*
X17630008Y-10742168I-40000J0D01*
G01*
X17630008Y-10996168D02*
G75*
G03*
X17630008Y-10996168I-40000J0D01*
G01*
X17630008Y-13028168D02*
G75*
G03*
X17630008Y-13028168I-40000J0D01*
G01*
X17630008Y-13282168D02*
G75*
G03*
X17630008Y-13282168I-40000J0D01*
G01*
X17884008Y-10742168D02*
G75*
G03*
X17884008Y-10742168I-40000J0D01*
G01*
X17884008Y-10996168D02*
G75*
G03*
X17884008Y-10996168I-40000J0D01*
G01*
X17884008Y-13028168D02*
G75*
G03*
X17884008Y-13028168I-40000J0D01*
G01*
X17884008Y-13282168D02*
G75*
G03*
X17884008Y-13282168I-40000J0D01*
G01*
X18138008Y-10742168D02*
G75*
G03*
X18138008Y-10742168I-40000J0D01*
G01*
X18138008Y-10996168D02*
G75*
G03*
X18138008Y-10996168I-40000J0D01*
G01*
X18138008Y-13028168D02*
G75*
G03*
X18138008Y-13028168I-40000J0D01*
G01*
X18138008Y-13282168D02*
G75*
G03*
X18138008Y-13282168I-40000J0D01*
G01*
X18392008Y-10742168D02*
G75*
G03*
X18392008Y-10742168I-40000J0D01*
G01*
X18392008Y-10996168D02*
G75*
G03*
X18392008Y-10996168I-40000J0D01*
G01*
X18392008Y-13028168D02*
G75*
G03*
X18392008Y-13028168I-40000J0D01*
G01*
X18392008Y-13282168D02*
G75*
G03*
X18392008Y-13282168I-40000J0D01*
G01*
X18646008Y-10742168D02*
G75*
G03*
X18646008Y-10742168I-40000J0D01*
G01*
X18646008Y-10996168D02*
G75*
G03*
X18646008Y-10996168I-40000J0D01*
G01*
X18646008Y-11250168D02*
G75*
G03*
X18646008Y-11250168I-40000J0D01*
G01*
X18646008Y-11504168D02*
G75*
G03*
X18646008Y-11504168I-40000J0D01*
G01*
X18646008Y-11758168D02*
G75*
G03*
X18646008Y-11758168I-40000J0D01*
G01*
X18646008Y-12012168D02*
G75*
G03*
X18646008Y-12012168I-40000J0D01*
G01*
X18646008Y-12266168D02*
G75*
G03*
X18646008Y-12266168I-40000J0D01*
G01*
X18646008Y-12520168D02*
G75*
G03*
X18646008Y-12520168I-40000J0D01*
G01*
X18646008Y-12774168D02*
G75*
G03*
X18646008Y-12774168I-40000J0D01*
G01*
X18646008Y-13028168D02*
G75*
G03*
X18646008Y-13028168I-40000J0D01*
G01*
X18646008Y-13282168D02*
G75*
G03*
X18646008Y-13282168I-40000J0D01*
G01*
X18900008Y-10996168D02*
G75*
G03*
X18900008Y-10996168I-40000J0D01*
G01*
X18900008Y-11250168D02*
G75*
G03*
X18900008Y-11250168I-40000J0D01*
G01*
X18900008Y-11504168D02*
G75*
G03*
X18900008Y-11504168I-40000J0D01*
G01*
X18900008Y-11758168D02*
G75*
G03*
X18900008Y-11758168I-40000J0D01*
G01*
X18900008Y-12012168D02*
G75*
G03*
X18900008Y-12012168I-40000J0D01*
G01*
X18900008Y-12266168D02*
G75*
G03*
X18900008Y-12266168I-40000J0D01*
G01*
X18900008Y-12520168D02*
G75*
G03*
X18900008Y-12520168I-40000J0D01*
G01*
X18900008Y-12774168D02*
G75*
G03*
X18900008Y-12774168I-40000J0D01*
G01*
X18900008Y-13028168D02*
G75*
G03*
X18900008Y-13028168I-40000J0D01*
G01*
D12*
X15844476Y-14098381D02*
X15844476Y-13798381D01*
X15915905Y-13798381D01*
X15958762Y-13812667D01*
X15987334Y-13841239D01*
X16001619Y-13869810D01*
X16015905Y-13926953D01*
X16015905Y-13969810D01*
X16001619Y-14026953D01*
X15987334Y-14055524D01*
X15958762Y-14084096D01*
X15915905Y-14098381D01*
X15844476Y-14098381D01*
X16144476Y-14098381D02*
X16144476Y-13898381D01*
X16144476Y-13955524D02*
X16158762Y-13926953D01*
X16173048Y-13912667D01*
X16201619Y-13898381D01*
X16230191Y-13898381D01*
X16330191Y-14098381D02*
X16330191Y-13898381D01*
X16330191Y-13798381D02*
X16315905Y-13812667D01*
X16330191Y-13826953D01*
X16344476Y-13812667D01*
X16330191Y-13798381D01*
X16330191Y-13826953D01*
X16515905Y-14098381D02*
X16487334Y-14084096D01*
X16473048Y-14055524D01*
X16473048Y-13798381D01*
X16673048Y-14098381D02*
X16644476Y-14084096D01*
X16630191Y-14055524D01*
X16630191Y-13798381D01*
X17015905Y-14098381D02*
X17015905Y-13798381D01*
X17115905Y-14012667D01*
X17215905Y-13798381D01*
X17215905Y-14098381D01*
X17487334Y-14098381D02*
X17487334Y-13941239D01*
X17473048Y-13912667D01*
X17444476Y-13898381D01*
X17387334Y-13898381D01*
X17358762Y-13912667D01*
X17487334Y-14084096D02*
X17458762Y-14098381D01*
X17387334Y-14098381D01*
X17358762Y-14084096D01*
X17344476Y-14055524D01*
X17344476Y-14026953D01*
X17358762Y-13998381D01*
X17387334Y-13984096D01*
X17458762Y-13984096D01*
X17487334Y-13969810D01*
X17630191Y-13898381D02*
X17630191Y-14198381D01*
X17630191Y-13912667D02*
X17658762Y-13898381D01*
X17715905Y-13898381D01*
X17744476Y-13912667D01*
X17758762Y-13926953D01*
X17773048Y-13955524D01*
X17773048Y-14041239D01*
X17758762Y-14069810D01*
X17744476Y-14084096D01*
X17715905Y-14098381D01*
X17658762Y-14098381D01*
X17630191Y-14084096D01*
X17901619Y-14069810D02*
X17915905Y-14084096D01*
X17901619Y-14098381D01*
X17887334Y-14084096D01*
X17901619Y-14069810D01*
X17901619Y-14098381D01*
X17901619Y-13912667D02*
X17915905Y-13926953D01*
X17901619Y-13941239D01*
X17887334Y-13926953D01*
X17901619Y-13912667D01*
X17901619Y-13941239D01*
X15518048Y-14572667D02*
X15558048Y-14612667D01*
X15558048Y-14572667D02*
X15518048Y-14612667D01*
X15901619Y-14428381D02*
X15930191Y-14428381D01*
X15958762Y-14442667D01*
X15973048Y-14456953D01*
X15987334Y-14485524D01*
X16001619Y-14542667D01*
X16001619Y-14614096D01*
X15987334Y-14671239D01*
X15973048Y-14699810D01*
X15958762Y-14714096D01*
X15930191Y-14728381D01*
X15901619Y-14728381D01*
X15873048Y-14714096D01*
X15858762Y-14699810D01*
X15844476Y-14671239D01*
X15830191Y-14614096D01*
X15830191Y-14542667D01*
X15844476Y-14485524D01*
X15858762Y-14456953D01*
X15873048Y-14442667D01*
X15901619Y-14428381D01*
X16130191Y-14699810D02*
X16144476Y-14714096D01*
X16130191Y-14728381D01*
X16115905Y-14714096D01*
X16130191Y-14699810D01*
X16130191Y-14728381D01*
X16401619Y-14528381D02*
X16401619Y-14728381D01*
X16330191Y-14414096D02*
X16258762Y-14628381D01*
X16444476Y-14628381D01*
X16615905Y-14428381D02*
X16644476Y-14428381D01*
X16673048Y-14442667D01*
X16687334Y-14456953D01*
X16701619Y-14485524D01*
X16715905Y-14542667D01*
X16715905Y-14614096D01*
X16701619Y-14671239D01*
X16687334Y-14699810D01*
X16673048Y-14714096D01*
X16644476Y-14728381D01*
X16615905Y-14728381D01*
X16587334Y-14714096D01*
X16573048Y-14699810D01*
X16558762Y-14671239D01*
X16544476Y-14614096D01*
X16544476Y-14542667D01*
X16558762Y-14485524D01*
X16573048Y-14456953D01*
X16587334Y-14442667D01*
X16615905Y-14428381D01*
X16844476Y-14728381D02*
X16844476Y-14528381D01*
X16844476Y-14556953D02*
X16858762Y-14542667D01*
X16887334Y-14528381D01*
X16930191Y-14528381D01*
X16958762Y-14542667D01*
X16973048Y-14571239D01*
X16973048Y-14728381D01*
X16973048Y-14571239D02*
X16987334Y-14542667D01*
X17015905Y-14528381D01*
X17058762Y-14528381D01*
X17087334Y-14542667D01*
X17101619Y-14571239D01*
X17101619Y-14728381D01*
X17244476Y-14728381D02*
X17244476Y-14528381D01*
X17244476Y-14556953D02*
X17258762Y-14542667D01*
X17287334Y-14528381D01*
X17330191Y-14528381D01*
X17358762Y-14542667D01*
X17373048Y-14571239D01*
X17373048Y-14728381D01*
X17373048Y-14571239D02*
X17387334Y-14542667D01*
X17415905Y-14528381D01*
X17458762Y-14528381D01*
X17487334Y-14542667D01*
X17501619Y-14571239D01*
X17501619Y-14728381D01*
X18087334Y-14414096D02*
X17830191Y-14799810D01*
X18473048Y-14428381D02*
X18501619Y-14428381D01*
X18530191Y-14442667D01*
X18544476Y-14456953D01*
X18558762Y-14485524D01*
X18573048Y-14542667D01*
X18573048Y-14614096D01*
X18558762Y-14671239D01*
X18544476Y-14699810D01*
X18530191Y-14714096D01*
X18501619Y-14728381D01*
X18473048Y-14728381D01*
X18444476Y-14714096D01*
X18430191Y-14699810D01*
X18415905Y-14671239D01*
X18401619Y-14614096D01*
X18401619Y-14542667D01*
X18415905Y-14485524D01*
X18430191Y-14456953D01*
X18444476Y-14442667D01*
X18473048Y-14428381D01*
X18701619Y-14699810D02*
X18715905Y-14714096D01*
X18701619Y-14728381D01*
X18687334Y-14714096D01*
X18701619Y-14699810D01*
X18701619Y-14728381D01*
X18901619Y-14428381D02*
X18930191Y-14428381D01*
X18958762Y-14442667D01*
X18973048Y-14456953D01*
X18987334Y-14485524D01*
X19001619Y-14542667D01*
X19001619Y-14614096D01*
X18987334Y-14671239D01*
X18973048Y-14699810D01*
X18958762Y-14714096D01*
X18930191Y-14728381D01*
X18901619Y-14728381D01*
X18873048Y-14714096D01*
X18858762Y-14699810D01*
X18844476Y-14671239D01*
X18830191Y-14614096D01*
X18830191Y-14542667D01*
X18844476Y-14485524D01*
X18858762Y-14456953D01*
X18873048Y-14442667D01*
X18901619Y-14428381D01*
X19287334Y-14728381D02*
X19115905Y-14728381D01*
X19201619Y-14728381D02*
X19201619Y-14428381D01*
X19173048Y-14471239D01*
X19144476Y-14499810D01*
X19115905Y-14514096D01*
X19544476Y-14428381D02*
X19487334Y-14428381D01*
X19458762Y-14442667D01*
X19444476Y-14456953D01*
X19415905Y-14499810D01*
X19401619Y-14556953D01*
X19401619Y-14671239D01*
X19415905Y-14699810D01*
X19430191Y-14714096D01*
X19458762Y-14728381D01*
X19515905Y-14728381D01*
X19544476Y-14714096D01*
X19558762Y-14699810D01*
X19573048Y-14671239D01*
X19573048Y-14599810D01*
X19558762Y-14571239D01*
X19544476Y-14556953D01*
X19515905Y-14542667D01*
X19458762Y-14542667D01*
X19430191Y-14556953D01*
X19415905Y-14571239D01*
X19401619Y-14599810D01*
X19687334Y-14428381D02*
X19687334Y-14485524D01*
X19801619Y-14428381D02*
X19801619Y-14485524D01*
X20244476Y-14842667D02*
X20230191Y-14828381D01*
X20201619Y-14785524D01*
X20187334Y-14756953D01*
X20173048Y-14714096D01*
X20158762Y-14642667D01*
X20158762Y-14585524D01*
X20173048Y-14514096D01*
X20187334Y-14471239D01*
X20201619Y-14442667D01*
X20230191Y-14399810D01*
X20244476Y-14385524D01*
X20515905Y-14728381D02*
X20344476Y-14728381D01*
X20430191Y-14728381D02*
X20430191Y-14428381D01*
X20401619Y-14471239D01*
X20373048Y-14499810D01*
X20344476Y-14514096D01*
X20615905Y-14428381D02*
X20815905Y-14428381D01*
X20687334Y-14728381D01*
X21158762Y-14728381D02*
X21158762Y-14428381D01*
X21287334Y-14728381D02*
X21287334Y-14571239D01*
X21273048Y-14542667D01*
X21244476Y-14528381D01*
X21201619Y-14528381D01*
X21173048Y-14542667D01*
X21158762Y-14556953D01*
X21473048Y-14728381D02*
X21444476Y-14714096D01*
X21430191Y-14699810D01*
X21415905Y-14671239D01*
X21415905Y-14585524D01*
X21430191Y-14556953D01*
X21444476Y-14542667D01*
X21473048Y-14528381D01*
X21515905Y-14528381D01*
X21544476Y-14542667D01*
X21558762Y-14556953D01*
X21573048Y-14585524D01*
X21573048Y-14671239D01*
X21558762Y-14699810D01*
X21544476Y-14714096D01*
X21515905Y-14728381D01*
X21473048Y-14728381D01*
X21744476Y-14728381D02*
X21715905Y-14714096D01*
X21701619Y-14685524D01*
X21701619Y-14428381D01*
X21973048Y-14714096D02*
X21944476Y-14728381D01*
X21887334Y-14728381D01*
X21858762Y-14714096D01*
X21844476Y-14685524D01*
X21844476Y-14571239D01*
X21858762Y-14542667D01*
X21887334Y-14528381D01*
X21944476Y-14528381D01*
X21973048Y-14542667D01*
X21987334Y-14571239D01*
X21987334Y-14599810D01*
X21844476Y-14628381D01*
X22101619Y-14714096D02*
X22130191Y-14728381D01*
X22187334Y-14728381D01*
X22215905Y-14714096D01*
X22230191Y-14685524D01*
X22230191Y-14671239D01*
X22215905Y-14642667D01*
X22187334Y-14628381D01*
X22144476Y-14628381D01*
X22115905Y-14614096D01*
X22101619Y-14585524D01*
X22101619Y-14571239D01*
X22115905Y-14542667D01*
X22144476Y-14528381D01*
X22187334Y-14528381D01*
X22215905Y-14542667D01*
X22330191Y-14842667D02*
X22344476Y-14828381D01*
X22373048Y-14785524D01*
X22387334Y-14756953D01*
X22401619Y-14714096D01*
X22415905Y-14642667D01*
X22415905Y-14585524D01*
X22401619Y-14514096D01*
X22387334Y-14471239D01*
X22373048Y-14442667D01*
X22344476Y-14399810D01*
X22330191Y-14385524D01*
X15558048Y-14988667D02*
G75*
G03*
X15558048Y-14988667I-40000J0D01*
G01*
X15901619Y-14824381D02*
X15930191Y-14824381D01*
X15958762Y-14838667D01*
X15973048Y-14852953D01*
X15987334Y-14881524D01*
X16001619Y-14938667D01*
X16001619Y-15010096D01*
X15987334Y-15067239D01*
X15973048Y-15095810D01*
X15958762Y-15110096D01*
X15930191Y-15124381D01*
X15901619Y-15124381D01*
X15873048Y-15110096D01*
X15858762Y-15095810D01*
X15844476Y-15067239D01*
X15830191Y-15010096D01*
X15830191Y-14938667D01*
X15844476Y-14881524D01*
X15858762Y-14852953D01*
X15873048Y-14838667D01*
X15901619Y-14824381D01*
X16130191Y-15095810D02*
X16144476Y-15110096D01*
X16130191Y-15124381D01*
X16115905Y-15110096D01*
X16130191Y-15095810D01*
X16130191Y-15124381D01*
X16315905Y-14952953D02*
X16287334Y-14938667D01*
X16273048Y-14924381D01*
X16258762Y-14895810D01*
X16258762Y-14881524D01*
X16273048Y-14852953D01*
X16287334Y-14838667D01*
X16315905Y-14824381D01*
X16373048Y-14824381D01*
X16401619Y-14838667D01*
X16415905Y-14852953D01*
X16430191Y-14881524D01*
X16430191Y-14895810D01*
X16415905Y-14924381D01*
X16401619Y-14938667D01*
X16373048Y-14952953D01*
X16315905Y-14952953D01*
X16287334Y-14967239D01*
X16273048Y-14981524D01*
X16258762Y-15010096D01*
X16258762Y-15067239D01*
X16273048Y-15095810D01*
X16287334Y-15110096D01*
X16315905Y-15124381D01*
X16373048Y-15124381D01*
X16401619Y-15110096D01*
X16415905Y-15095810D01*
X16430191Y-15067239D01*
X16430191Y-15010096D01*
X16415905Y-14981524D01*
X16401619Y-14967239D01*
X16373048Y-14952953D01*
X16615905Y-14824381D02*
X16644476Y-14824381D01*
X16673048Y-14838667D01*
X16687334Y-14852953D01*
X16701619Y-14881524D01*
X16715905Y-14938667D01*
X16715905Y-15010096D01*
X16701619Y-15067239D01*
X16687334Y-15095810D01*
X16673048Y-15110096D01*
X16644476Y-15124381D01*
X16615905Y-15124381D01*
X16587334Y-15110096D01*
X16573048Y-15095810D01*
X16558762Y-15067239D01*
X16544476Y-15010096D01*
X16544476Y-14938667D01*
X16558762Y-14881524D01*
X16573048Y-14852953D01*
X16587334Y-14838667D01*
X16615905Y-14824381D01*
X16844476Y-15124381D02*
X16844476Y-14924381D01*
X16844476Y-14952953D02*
X16858762Y-14938667D01*
X16887334Y-14924381D01*
X16930191Y-14924381D01*
X16958762Y-14938667D01*
X16973048Y-14967239D01*
X16973048Y-15124381D01*
X16973048Y-14967239D02*
X16987334Y-14938667D01*
X17015905Y-14924381D01*
X17058762Y-14924381D01*
X17087334Y-14938667D01*
X17101619Y-14967239D01*
X17101619Y-15124381D01*
X17244476Y-15124381D02*
X17244476Y-14924381D01*
X17244476Y-14952953D02*
X17258762Y-14938667D01*
X17287334Y-14924381D01*
X17330191Y-14924381D01*
X17358762Y-14938667D01*
X17373048Y-14967239D01*
X17373048Y-15124381D01*
X17373048Y-14967239D02*
X17387334Y-14938667D01*
X17415905Y-14924381D01*
X17458762Y-14924381D01*
X17487334Y-14938667D01*
X17501619Y-14967239D01*
X17501619Y-15124381D01*
X18087334Y-14810096D02*
X17830191Y-15195810D01*
X18473048Y-14824381D02*
X18501619Y-14824381D01*
X18530191Y-14838667D01*
X18544476Y-14852953D01*
X18558762Y-14881524D01*
X18573048Y-14938667D01*
X18573048Y-15010096D01*
X18558762Y-15067239D01*
X18544476Y-15095810D01*
X18530191Y-15110096D01*
X18501619Y-15124381D01*
X18473048Y-15124381D01*
X18444476Y-15110096D01*
X18430191Y-15095810D01*
X18415905Y-15067239D01*
X18401619Y-15010096D01*
X18401619Y-14938667D01*
X18415905Y-14881524D01*
X18430191Y-14852953D01*
X18444476Y-14838667D01*
X18473048Y-14824381D01*
X18701619Y-15095810D02*
X18715905Y-15110096D01*
X18701619Y-15124381D01*
X18687334Y-15110096D01*
X18701619Y-15095810D01*
X18701619Y-15124381D01*
X18901619Y-14824381D02*
X18930191Y-14824381D01*
X18958762Y-14838667D01*
X18973048Y-14852953D01*
X18987334Y-14881524D01*
X19001619Y-14938667D01*
X19001619Y-15010096D01*
X18987334Y-15067239D01*
X18973048Y-15095810D01*
X18958762Y-15110096D01*
X18930191Y-15124381D01*
X18901619Y-15124381D01*
X18873048Y-15110096D01*
X18858762Y-15095810D01*
X18844476Y-15067239D01*
X18830191Y-15010096D01*
X18830191Y-14938667D01*
X18844476Y-14881524D01*
X18858762Y-14852953D01*
X18873048Y-14838667D01*
X18901619Y-14824381D01*
X19101619Y-14824381D02*
X19287334Y-14824381D01*
X19187334Y-14938667D01*
X19230191Y-14938667D01*
X19258762Y-14952953D01*
X19273048Y-14967239D01*
X19287334Y-14995810D01*
X19287334Y-15067239D01*
X19273048Y-15095810D01*
X19258762Y-15110096D01*
X19230191Y-15124381D01*
X19144476Y-15124381D01*
X19115905Y-15110096D01*
X19101619Y-15095810D01*
X19573048Y-15124381D02*
X19401619Y-15124381D01*
X19487334Y-15124381D02*
X19487334Y-14824381D01*
X19458762Y-14867239D01*
X19430191Y-14895810D01*
X19401619Y-14910096D01*
X19687334Y-14824381D02*
X19687334Y-14881524D01*
X19801619Y-14824381D02*
X19801619Y-14881524D01*
X20244476Y-15238667D02*
X20230191Y-15224381D01*
X20201619Y-15181524D01*
X20187334Y-15152953D01*
X20173048Y-15110096D01*
X20158762Y-15038667D01*
X20158762Y-14981524D01*
X20173048Y-14910096D01*
X20187334Y-14867239D01*
X20201619Y-14838667D01*
X20230191Y-14795810D01*
X20244476Y-14781524D01*
X20487334Y-14824381D02*
X20430191Y-14824381D01*
X20401619Y-14838667D01*
X20387334Y-14852953D01*
X20358762Y-14895810D01*
X20344476Y-14952953D01*
X20344476Y-15067239D01*
X20358762Y-15095810D01*
X20373048Y-15110096D01*
X20401619Y-15124381D01*
X20458762Y-15124381D01*
X20487334Y-15110096D01*
X20501619Y-15095810D01*
X20515905Y-15067239D01*
X20515905Y-14995810D01*
X20501619Y-14967239D01*
X20487334Y-14952953D01*
X20458762Y-14938667D01*
X20401619Y-14938667D01*
X20373048Y-14952953D01*
X20358762Y-14967239D01*
X20344476Y-14995810D01*
X20687334Y-14952953D02*
X20658762Y-14938667D01*
X20644476Y-14924381D01*
X20630191Y-14895810D01*
X20630191Y-14881524D01*
X20644476Y-14852953D01*
X20658762Y-14838667D01*
X20687334Y-14824381D01*
X20744476Y-14824381D01*
X20773048Y-14838667D01*
X20787334Y-14852953D01*
X20801619Y-14881524D01*
X20801619Y-14895810D01*
X20787334Y-14924381D01*
X20773048Y-14938667D01*
X20744476Y-14952953D01*
X20687334Y-14952953D01*
X20658762Y-14967239D01*
X20644476Y-14981524D01*
X20630191Y-15010096D01*
X20630191Y-15067239D01*
X20644476Y-15095810D01*
X20658762Y-15110096D01*
X20687334Y-15124381D01*
X20744476Y-15124381D01*
X20773048Y-15110096D01*
X20787334Y-15095810D01*
X20801619Y-15067239D01*
X20801619Y-15010096D01*
X20787334Y-14981524D01*
X20773048Y-14967239D01*
X20744476Y-14952953D01*
X21158762Y-15124381D02*
X21158762Y-14824381D01*
X21287334Y-15124381D02*
X21287334Y-14967239D01*
X21273048Y-14938667D01*
X21244476Y-14924381D01*
X21201619Y-14924381D01*
X21173048Y-14938667D01*
X21158762Y-14952953D01*
X21473048Y-15124381D02*
X21444476Y-15110096D01*
X21430191Y-15095810D01*
X21415905Y-15067239D01*
X21415905Y-14981524D01*
X21430191Y-14952953D01*
X21444476Y-14938667D01*
X21473048Y-14924381D01*
X21515905Y-14924381D01*
X21544476Y-14938667D01*
X21558762Y-14952953D01*
X21573048Y-14981524D01*
X21573048Y-15067239D01*
X21558762Y-15095810D01*
X21544476Y-15110096D01*
X21515905Y-15124381D01*
X21473048Y-15124381D01*
X21744476Y-15124381D02*
X21715905Y-15110096D01*
X21701619Y-15081524D01*
X21701619Y-14824381D01*
X21973048Y-15110096D02*
X21944476Y-15124381D01*
X21887334Y-15124381D01*
X21858762Y-15110096D01*
X21844476Y-15081524D01*
X21844476Y-14967239D01*
X21858762Y-14938667D01*
X21887334Y-14924381D01*
X21944476Y-14924381D01*
X21973048Y-14938667D01*
X21987334Y-14967239D01*
X21987334Y-14995810D01*
X21844476Y-15024381D01*
X22101619Y-15110096D02*
X22130191Y-15124381D01*
X22187334Y-15124381D01*
X22215905Y-15110096D01*
X22230191Y-15081524D01*
X22230191Y-15067239D01*
X22215905Y-15038667D01*
X22187334Y-15024381D01*
X22144476Y-15024381D01*
X22115905Y-15010096D01*
X22101619Y-14981524D01*
X22101619Y-14967239D01*
X22115905Y-14938667D01*
X22144476Y-14924381D01*
X22187334Y-14924381D01*
X22215905Y-14938667D01*
X22330191Y-15238667D02*
X22344476Y-15224381D01*
X22373048Y-15181524D01*
X22387334Y-15152953D01*
X22401619Y-15110096D01*
X22415905Y-15038667D01*
X22415905Y-14981524D01*
X22401619Y-14910096D01*
X22387334Y-14867239D01*
X22373048Y-14838667D01*
X22344476Y-14795810D01*
X22330191Y-14781524D01*
M02*
