%FSLAX45Y45*%
G04 Gerber Fmt 4.5, Leading zero omitted, Abs format (unit mm)*
G04 Created by KiCad (PCBNEW (5.1.6)-1) date 2023-06-21 17:15:14*
%MOMM*%
%LPD*%
G01*
G04 APERTURE LIST*
%TA.AperFunction,Profile*%
%ADD10C,0.050000*%
%TD*%
%ADD11C,0.200000*%
%ADD12C,0.300000*%
G04 APERTURE END LIST*
D10*
X15560548Y-7366000D02*
G75*
G02*
X15735318Y-7191230I174770J0D01*
G01*
X15734810Y-13630167D02*
G75*
G02*
X15560548Y-13456412I0J174263D01*
G01*
X19612864Y-13455378D02*
G75*
G02*
X19438094Y-13630148I-174770J0D01*
G01*
X19438602Y-7191230D02*
G75*
G02*
X19613372Y-7366000I0J-174770D01*
G01*
X19612864Y-12392660D02*
X19613372Y-7366000D01*
X15735318Y-7191230D02*
X19438602Y-7191230D01*
X15560548Y-13456412D02*
X15560548Y-7366000D01*
X19438094Y-13630148D02*
X15734810Y-13630167D01*
X19612864Y-12392660D02*
X19612864Y-13455378D01*
D11*
D12*
X15844476Y-14098381D02*
X15844476Y-13798381D01*
X15915905Y-13798381D01*
X15958762Y-13812667D01*
X15987334Y-13841239D01*
X16001619Y-13869810D01*
X16015905Y-13926953D01*
X16015905Y-13969810D01*
X16001619Y-14026953D01*
X15987334Y-14055524D01*
X15958762Y-14084096D01*
X15915905Y-14098381D01*
X15844476Y-14098381D01*
X16144476Y-14098381D02*
X16144476Y-13898381D01*
X16144476Y-13955524D02*
X16158762Y-13926953D01*
X16173048Y-13912667D01*
X16201619Y-13898381D01*
X16230191Y-13898381D01*
X16330191Y-14098381D02*
X16330191Y-13898381D01*
X16330191Y-13798381D02*
X16315905Y-13812667D01*
X16330191Y-13826953D01*
X16344476Y-13812667D01*
X16330191Y-13798381D01*
X16330191Y-13826953D01*
X16515905Y-14098381D02*
X16487334Y-14084096D01*
X16473048Y-14055524D01*
X16473048Y-13798381D01*
X16673048Y-14098381D02*
X16644476Y-14084096D01*
X16630191Y-14055524D01*
X16630191Y-13798381D01*
X17015905Y-14098381D02*
X17015905Y-13798381D01*
X17115905Y-14012667D01*
X17215905Y-13798381D01*
X17215905Y-14098381D01*
X17487334Y-14098381D02*
X17487334Y-13941239D01*
X17473048Y-13912667D01*
X17444476Y-13898381D01*
X17387334Y-13898381D01*
X17358762Y-13912667D01*
X17487334Y-14084096D02*
X17458762Y-14098381D01*
X17387334Y-14098381D01*
X17358762Y-14084096D01*
X17344476Y-14055524D01*
X17344476Y-14026953D01*
X17358762Y-13998381D01*
X17387334Y-13984096D01*
X17458762Y-13984096D01*
X17487334Y-13969810D01*
X17630191Y-13898381D02*
X17630191Y-14198381D01*
X17630191Y-13912667D02*
X17658762Y-13898381D01*
X17715905Y-13898381D01*
X17744476Y-13912667D01*
X17758762Y-13926953D01*
X17773048Y-13955524D01*
X17773048Y-14041239D01*
X17758762Y-14069810D01*
X17744476Y-14084096D01*
X17715905Y-14098381D01*
X17658762Y-14098381D01*
X17630191Y-14084096D01*
X17901619Y-14069810D02*
X17915905Y-14084096D01*
X17901619Y-14098381D01*
X17887334Y-14084096D01*
X17901619Y-14069810D01*
X17901619Y-14098381D01*
X17901619Y-13912667D02*
X17915905Y-13926953D01*
X17901619Y-13941239D01*
X17887334Y-13926953D01*
X17901619Y-13912667D01*
X17901619Y-13941239D01*
M02*
