%TF.GenerationSoftware,KiCad,Pcbnew,(5.1.6)-1*%
%TF.CreationDate,2023-06-21T17:15:11-04:00*%
%TF.ProjectId,PLCC68-to-PGA,504c4343-3638-42d7-946f-2d5047412e6b,rev?*%
%TF.SameCoordinates,Original*%
%TF.FileFunction,Legend,Bot*%
%TF.FilePolarity,Positive*%
%FSLAX46Y46*%
G04 Gerber Fmt 4.6, Leading zero omitted, Abs format (unit mm)*
G04 Created by KiCad (PCBNEW (5.1.6)-1) date 2023-06-21 17:15:11*
%MOMM*%
%LPD*%
G01*
G04 APERTURE LIST*
%ADD10C,0.100000*%
%ADD11C,0.120000*%
%ADD12C,0.150000*%
G04 APERTURE END LIST*
D10*
%TO.C,U1*%
X188674920Y-75241240D02*
X188674920Y-76891240D01*
X187024920Y-75241240D02*
X188674920Y-75241240D01*
X163104920Y-75241240D02*
X163104920Y-76891240D01*
X164754920Y-75241240D02*
X163104920Y-75241240D01*
X188674920Y-100811240D02*
X188674920Y-99161240D01*
X187024920Y-100811240D02*
X188674920Y-100811240D01*
X163104920Y-99661240D02*
X163104920Y-99161240D01*
X164254920Y-100811240D02*
X163104920Y-99661240D01*
X164754920Y-100811240D02*
X164254920Y-100811240D01*
D11*
X191514920Y-103651240D02*
X176889920Y-103651240D01*
X191514920Y-72401240D02*
X191514920Y-103651240D01*
X160264920Y-72401240D02*
X191514920Y-72401240D01*
X160264920Y-102651240D02*
X160264920Y-72401240D01*
X161264920Y-103651240D02*
X160264920Y-102651240D01*
X174889920Y-103651240D02*
X161264920Y-103651240D01*
D12*
X176651824Y-103953620D02*
X176651824Y-104763144D01*
X176604205Y-104858382D01*
X176556586Y-104906001D01*
X176461348Y-104953620D01*
X176270872Y-104953620D01*
X176175634Y-104906001D01*
X176128015Y-104858382D01*
X176080396Y-104763144D01*
X176080396Y-103953620D01*
X175080396Y-104953620D02*
X175651824Y-104953620D01*
X175366110Y-104953620D02*
X175366110Y-103953620D01*
X175461348Y-104096478D01*
X175556586Y-104191716D01*
X175651824Y-104239335D01*
%TD*%
M02*
