M48
; DRILL file {KiCad (5.1.6)-1} date 06/21/23 17:15:13
; FORMAT={-:-/ absolute / metric / decimal}
; #@! TF.CreationDate,2023-06-21T17:15:13-04:00
; #@! TF.GenerationSoftware,Kicad,Pcbnew,(5.1.6)-1
; #@! TF.FileFunction,Plated,1,2,PTH
FMAT,2
METRIC
T1C0.400
T2C0.800
%
G90
G05
T1
X165.735Y-77.963
X167.005Y-77.948
X168.27Y-77.927
X169.54Y-77.917
X170.81Y-77.907
X172.08Y-77.917
X173.35Y-77.907
X174.62Y-77.897
X175.89Y-77.902
X177.16Y-77.897
X178.43Y-77.902
X179.695Y-77.897
X180.965Y-77.887
X182.24Y-77.892
X183.515Y-77.881
X184.78Y-77.902
X186.05Y-77.892
T2
X163.2Y-109.962
X163.2Y-112.502
X163.2Y-115.042
X163.2Y-117.582
X163.2Y-120.122
X163.2Y-122.662
X163.2Y-125.202
X163.2Y-127.742
X163.2Y-130.282
X165.74Y-107.422
X165.74Y-109.962
X165.74Y-112.502
X165.74Y-115.042
X165.74Y-117.582
X165.74Y-120.122
X165.74Y-122.662
X165.74Y-125.202
X165.74Y-127.742
X165.74Y-130.282
X165.74Y-132.822
X168.28Y-107.422
X168.28Y-109.962
X168.28Y-130.282
X168.28Y-132.822
X170.82Y-107.422
X170.82Y-109.962
X170.82Y-130.282
X170.82Y-132.822
X173.36Y-107.422
X173.36Y-109.962
X173.36Y-130.282
X173.36Y-132.822
X175.9Y-107.422
X175.9Y-109.962
X175.9Y-130.282
X175.9Y-132.822
X178.44Y-107.422
X178.44Y-109.962
X178.44Y-130.282
X178.44Y-132.822
X180.98Y-107.422
X180.98Y-109.962
X180.98Y-130.282
X180.98Y-132.822
X183.52Y-107.422
X183.52Y-109.962
X183.52Y-130.282
X183.52Y-132.822
X186.06Y-107.422
X186.06Y-109.962
X186.06Y-112.502
X186.06Y-115.042
X186.06Y-117.582
X186.06Y-120.122
X186.06Y-122.662
X186.06Y-125.202
X186.06Y-127.742
X186.06Y-130.282
X186.06Y-132.822
X188.6Y-109.962
X188.6Y-112.502
X188.6Y-115.042
X188.6Y-117.582
X188.6Y-120.122
X188.6Y-122.662
X188.6Y-125.202
X188.6Y-127.742
X188.6Y-130.282
T0
M30
