%TF.GenerationSoftware,KiCad,Pcbnew,(5.1.6)-1*%
%TF.CreationDate,2023-06-21T17:15:11-04:00*%
%TF.ProjectId,PLCC68-to-PGA,504c4343-3638-42d7-946f-2d5047412e6b,rev?*%
%TF.SameCoordinates,Original*%
%TF.FileFunction,Copper,L1,Top*%
%TF.FilePolarity,Positive*%
%FSLAX46Y46*%
G04 Gerber Fmt 4.6, Leading zero omitted, Abs format (unit mm)*
G04 Created by KiCad (PCBNEW (5.1.6)-1) date 2023-06-21 17:15:11*
%MOMM*%
%LPD*%
G01*
G04 APERTURE LIST*
%TA.AperFunction,ComponentPad*%
%ADD10C,1.422400*%
%TD*%
%TA.AperFunction,ComponentPad*%
%ADD11R,1.422400X1.422400*%
%TD*%
%TA.AperFunction,ViaPad*%
%ADD12C,0.500000*%
%TD*%
%TA.AperFunction,Conductor*%
%ADD13C,0.200000*%
%TD*%
G04 APERTURE END LIST*
D10*
%TO.P,U2,2*%
%TO.N,/2*%
X175900080Y-109961680D03*
%TO.P,U2,4*%
%TO.N,/4*%
X173360080Y-109961680D03*
%TO.P,U2,6*%
%TO.N,/6*%
X170820080Y-109961680D03*
%TO.P,U2,8*%
%TO.N,/8*%
X168280080Y-109961680D03*
%TO.P,U2,68*%
%TO.N,/68*%
X178440080Y-109961680D03*
%TO.P,U2,66*%
%TO.N,/66*%
X180980080Y-109961680D03*
%TO.P,U2,64*%
%TO.N,/64*%
X183520080Y-109961680D03*
%TO.P,U2,62*%
%TO.N,/62*%
X186060080Y-109961680D03*
D11*
%TO.P,U2,1*%
%TO.N,/1*%
X175900080Y-107421680D03*
D10*
%TO.P,U2,3*%
%TO.N,/3*%
X173360080Y-107421680D03*
%TO.P,U2,5*%
%TO.N,/5*%
X170820080Y-107421680D03*
%TO.P,U2,7*%
%TO.N,/7*%
X168280080Y-107421680D03*
%TO.P,U2,9*%
%TO.N,/9*%
X165740080Y-107421680D03*
%TO.P,U2,67*%
%TO.N,/67*%
X178440080Y-107421680D03*
%TO.P,U2,65*%
%TO.N,/65*%
X180980080Y-107421680D03*
%TO.P,U2,63*%
%TO.N,/63*%
X183520080Y-107421680D03*
%TO.P,U2,11*%
%TO.N,/11*%
X165740080Y-109961680D03*
%TO.P,U2,13*%
%TO.N,/13*%
X165740080Y-112501680D03*
%TO.P,U2,15*%
%TO.N,/15*%
X165740080Y-115041680D03*
%TO.P,U2,17*%
%TO.N,/17*%
X165740080Y-117581680D03*
%TO.P,U2,19*%
%TO.N,/19*%
X165740080Y-120121680D03*
%TO.P,U2,21*%
%TO.N,/21*%
X165740080Y-122661680D03*
%TO.P,U2,23*%
%TO.N,/23*%
X165740080Y-125201680D03*
%TO.P,U2,25*%
%TO.N,/25*%
X165740080Y-127741680D03*
%TO.P,U2,10*%
%TO.N,/10*%
X163200080Y-109961680D03*
%TO.P,U2,12*%
%TO.N,/12*%
X163200080Y-112501680D03*
%TO.P,U2,14*%
%TO.N,/14*%
X163200080Y-115041680D03*
%TO.P,U2,16*%
%TO.N,/16*%
X163200080Y-117581680D03*
%TO.P,U2,18*%
%TO.N,/18*%
X163200080Y-120121680D03*
%TO.P,U2,20*%
%TO.N,/20*%
X163200080Y-122661680D03*
%TO.P,U2,22*%
%TO.N,/22*%
X163200080Y-125201680D03*
%TO.P,U2,24*%
%TO.N,/24*%
X163200080Y-127741680D03*
%TO.P,U2,26*%
%TO.N,/26*%
X163200080Y-130281680D03*
%TO.P,U2,28*%
%TO.N,/28*%
X165740080Y-130281680D03*
%TO.P,U2,30*%
%TO.N,/30*%
X168280080Y-130281680D03*
%TO.P,U2,32*%
%TO.N,/32*%
X170820080Y-130281680D03*
%TO.P,U2,34*%
%TO.N,/34*%
X173360080Y-130281680D03*
%TO.P,U2,36*%
%TO.N,/36*%
X175900080Y-130281680D03*
%TO.P,U2,38*%
%TO.N,/38*%
X178440080Y-130281680D03*
%TO.P,U2,40*%
%TO.N,/40*%
X180980080Y-130281680D03*
%TO.P,U2,42*%
%TO.N,/42*%
X183520080Y-130281680D03*
%TO.P,U2,44*%
%TO.N,/44*%
X188600080Y-130281680D03*
%TO.P,U2,27*%
%TO.N,/27*%
X165740080Y-132821680D03*
%TO.P,U2,29*%
%TO.N,/29*%
X168280080Y-132821680D03*
%TO.P,U2,31*%
%TO.N,/31*%
X170820080Y-132821680D03*
%TO.P,U2,33*%
%TO.N,/33*%
X173360080Y-132821680D03*
%TO.P,U2,35*%
%TO.N,/35*%
X175900080Y-132821680D03*
%TO.P,U2,37*%
%TO.N,/37*%
X178440080Y-132821680D03*
%TO.P,U2,39*%
%TO.N,/39*%
X180980080Y-132821680D03*
%TO.P,U2,41*%
%TO.N,/41*%
X183520080Y-132821680D03*
%TO.P,U2,43*%
%TO.N,/43*%
X186060080Y-132821680D03*
%TO.P,U2,45*%
%TO.N,/45*%
X186060080Y-130281680D03*
%TO.P,U2,47*%
%TO.N,/47*%
X186060080Y-127741680D03*
%TO.P,U2,49*%
%TO.N,/49*%
X186060080Y-125201680D03*
%TO.P,U2,51*%
%TO.N,/51*%
X186060080Y-122661680D03*
%TO.P,U2,53*%
%TO.N,/53*%
X186060080Y-120121680D03*
%TO.P,U2,55*%
%TO.N,/55*%
X186060080Y-117581680D03*
%TO.P,U2,57*%
%TO.N,/57*%
X186060080Y-115041680D03*
%TO.P,U2,59*%
%TO.N,/59*%
X186060080Y-112501680D03*
%TO.P,U2,61*%
%TO.N,/61*%
X186060080Y-107421680D03*
%TO.P,U2,46*%
%TO.N,/46*%
X188600080Y-127741680D03*
%TO.P,U2,48*%
%TO.N,/48*%
X188600080Y-125201680D03*
%TO.P,U2,50*%
%TO.N,/50*%
X188600080Y-122661680D03*
%TO.P,U2,52*%
%TO.N,/52*%
X188600080Y-120121680D03*
%TO.P,U2,54*%
%TO.N,/54*%
X188600080Y-117581680D03*
%TO.P,U2,56*%
%TO.N,/56*%
X188600080Y-115041680D03*
%TO.P,U2,58*%
%TO.N,/58*%
X188600080Y-112501680D03*
%TO.P,U2,60*%
%TO.N,/60*%
X188600080Y-109961680D03*
%TD*%
D12*
%TO.N,/27*%
X165735000Y-77962760D03*
%TO.N,/28*%
X167005000Y-77947520D03*
%TO.N,/29*%
X168269920Y-77927200D03*
%TO.N,/30*%
X169539920Y-77917040D03*
%TO.N,/31*%
X170809920Y-77906880D03*
%TO.N,/32*%
X172079920Y-77917040D03*
%TO.N,/33*%
X173349920Y-77906880D03*
%TO.N,/34*%
X174619920Y-77896720D03*
%TO.N,/35*%
X175889920Y-77901800D03*
%TO.N,/36*%
X177159920Y-77896720D03*
%TO.N,/37*%
X178429920Y-77901800D03*
%TO.N,/38*%
X179694840Y-77896720D03*
%TO.N,/39*%
X180964840Y-77886560D03*
%TO.N,/40*%
X182239920Y-77891640D03*
%TO.N,/41*%
X183515000Y-77881480D03*
%TO.N,/42*%
X184779920Y-77901800D03*
%TO.N,/43*%
X186049920Y-77891640D03*
%TD*%
D13*
%TO.N,/27*%
X164724080Y-78973680D02*
X165735000Y-77962760D01*
X165740080Y-132821680D02*
X164724080Y-131805680D01*
X164724080Y-131805680D02*
X164724080Y-78973680D01*
%TO.N,/28*%
X166766240Y-78186280D02*
X167005000Y-77947520D01*
X165740080Y-130281680D02*
X166766240Y-129255520D01*
X166766240Y-129255520D02*
X166766240Y-78186280D01*
%TO.N,/29*%
X167253920Y-78943200D02*
X168269920Y-77927200D01*
X168280080Y-132821680D02*
X167253920Y-131795520D01*
X167253920Y-131795520D02*
X167253920Y-78943200D01*
%TO.N,/30*%
X169296080Y-78160880D02*
X169539920Y-77917040D01*
X168280080Y-130281680D02*
X169296080Y-129265680D01*
X169296080Y-129265680D02*
X169296080Y-78160880D01*
%TO.N,/31*%
X169804080Y-78912720D02*
X170809920Y-77906880D01*
X170820080Y-132821680D02*
X169804080Y-131805680D01*
X169804080Y-131805680D02*
X169804080Y-78912720D01*
%TO.N,/32*%
X171846240Y-78150720D02*
X172079920Y-77917040D01*
X170820080Y-130281680D02*
X171846240Y-129255520D01*
X171846240Y-129255520D02*
X171846240Y-78150720D01*
%TO.N,/33*%
X172344080Y-78912720D02*
X173349920Y-77906880D01*
X173360080Y-132821680D02*
X172344080Y-131805680D01*
X172344080Y-131805680D02*
X172344080Y-78912720D01*
%TO.N,/34*%
X174381160Y-78135480D02*
X174619920Y-77896720D01*
X173360080Y-130281680D02*
X174381160Y-129260600D01*
X174381160Y-129260600D02*
X174381160Y-78135480D01*
%TO.N,/35*%
X175900080Y-132821680D02*
X174879000Y-131800600D01*
X174879000Y-78912720D02*
X175889920Y-77901800D01*
X174879000Y-131800600D02*
X174879000Y-78912720D01*
%TO.N,/36*%
X176916080Y-78140560D02*
X177159920Y-77896720D01*
X175900080Y-130281680D02*
X176916080Y-129265680D01*
X176916080Y-129265680D02*
X176916080Y-78140560D01*
%TO.N,/37*%
X177429160Y-78902560D02*
X178429920Y-77901800D01*
X177428879Y-107907057D02*
X177428879Y-106936303D01*
X177429160Y-106936022D02*
X177429160Y-78902560D01*
X177429160Y-130767338D02*
X177428879Y-130767057D01*
X177428879Y-106936303D02*
X177429160Y-106936022D01*
X177428879Y-130767057D02*
X177428879Y-129796303D01*
X178440080Y-132821680D02*
X177429160Y-131810760D01*
X177428879Y-109476303D02*
X177429160Y-109476022D01*
X177429160Y-131810760D02*
X177429160Y-130767338D01*
X177429160Y-129796022D02*
X177429160Y-110447338D01*
X177429160Y-110447338D02*
X177428879Y-110447057D01*
X177429160Y-107907338D02*
X177428879Y-107907057D01*
X177428879Y-129796303D02*
X177429160Y-129796022D01*
X177428879Y-110447057D02*
X177428879Y-109476303D01*
X177429160Y-109476022D02*
X177429160Y-107907338D01*
%TO.N,/38*%
X179461160Y-78130400D02*
X179694840Y-77896720D01*
X178440080Y-130281680D02*
X179461160Y-129260600D01*
X179461160Y-129260600D02*
X179461160Y-78130400D01*
%TO.N,/39*%
X179953920Y-78897480D02*
X180964840Y-77886560D01*
X180980080Y-132821680D02*
X179953920Y-131795520D01*
X179953920Y-131795520D02*
X179953920Y-78897480D01*
%TO.N,/40*%
X181996080Y-78135480D02*
X182239920Y-77891640D01*
X180980080Y-130281680D02*
X181996080Y-129265680D01*
X181996080Y-129265680D02*
X181996080Y-78135480D01*
%TO.N,/41*%
X182499000Y-78897480D02*
X183515000Y-77881480D01*
X183520080Y-132821680D02*
X182499000Y-131800600D01*
X182499000Y-131800600D02*
X182499000Y-78897480D01*
%TO.N,/42*%
X184546240Y-78135480D02*
X184779920Y-77901800D01*
X183520080Y-130281680D02*
X184546240Y-129255520D01*
X184546240Y-129255520D02*
X184546240Y-78135480D01*
%TO.N,/43*%
X186060080Y-132821680D02*
X185039000Y-131800600D01*
X185039000Y-78902560D02*
X186049920Y-77891640D01*
X185039000Y-131800600D02*
X185039000Y-78902560D01*
%TD*%
M02*
