%TF.GenerationSoftware,KiCad,Pcbnew,(5.1.6)-1*%
%TF.CreationDate,2023-06-21T17:15:11-04:00*%
%TF.ProjectId,PLCC68-to-PGA,504c4343-3638-42d7-946f-2d5047412e6b,rev?*%
%TF.SameCoordinates,Original*%
%TF.FileFunction,Legend,Top*%
%TF.FilePolarity,Positive*%
%FSLAX46Y46*%
G04 Gerber Fmt 4.6, Leading zero omitted, Abs format (unit mm)*
G04 Created by KiCad (PCBNEW (5.1.6)-1) date 2023-06-21 17:15:11*
%MOMM*%
%LPD*%
G01*
G04 APERTURE LIST*
%ADD10C,0.150000*%
%ADD11C,0.350000*%
%ADD12C,0.120000*%
G04 APERTURE END LIST*
D10*
X157475180Y-135138278D02*
X156808514Y-135138278D01*
X156998990Y-135138278D02*
X156903752Y-135090659D01*
X156856133Y-135043040D01*
X156808514Y-134947801D01*
X156808514Y-134852563D01*
X157427561Y-134138278D02*
X157475180Y-134233516D01*
X157475180Y-134423992D01*
X157427561Y-134519230D01*
X157332323Y-134566849D01*
X156951371Y-134566849D01*
X156856133Y-134519230D01*
X156808514Y-134423992D01*
X156808514Y-134233516D01*
X156856133Y-134138278D01*
X156951371Y-134090659D01*
X157046609Y-134090659D01*
X157141847Y-134566849D01*
X156808514Y-133757325D02*
X157475180Y-133519230D01*
X156808514Y-133281135D01*
X157379942Y-132900182D02*
X157427561Y-132852563D01*
X157475180Y-132900182D01*
X157427561Y-132947801D01*
X157379942Y-132900182D01*
X157475180Y-132900182D01*
X156475180Y-132233516D02*
X156475180Y-132138278D01*
X156522800Y-132043040D01*
X156570419Y-131995420D01*
X156665657Y-131947801D01*
X156856133Y-131900182D01*
X157094228Y-131900182D01*
X157284704Y-131947801D01*
X157379942Y-131995420D01*
X157427561Y-132043040D01*
X157475180Y-132138278D01*
X157475180Y-132233516D01*
X157427561Y-132328754D01*
X157379942Y-132376373D01*
X157284704Y-132423992D01*
X157094228Y-132471611D01*
X156856133Y-132471611D01*
X156665657Y-132423992D01*
X156570419Y-132376373D01*
X156522800Y-132328754D01*
X156475180Y-132233516D01*
X194436074Y-135342853D02*
X195102740Y-135152377D01*
X194626550Y-134961900D01*
X195102740Y-134771424D01*
X194436074Y-134580948D01*
X195102740Y-134199996D02*
X194436074Y-134199996D01*
X194102740Y-134199996D02*
X194150360Y-134247615D01*
X194197979Y-134199996D01*
X194150360Y-134152377D01*
X194102740Y-134199996D01*
X194197979Y-134199996D01*
X195102740Y-133723805D02*
X194436074Y-133723805D01*
X194626550Y-133723805D02*
X194531312Y-133676186D01*
X194483693Y-133628567D01*
X194436074Y-133533329D01*
X194436074Y-133438091D01*
X195055121Y-132723805D02*
X195102740Y-132819043D01*
X195102740Y-133009520D01*
X195055121Y-133104758D01*
X194959883Y-133152377D01*
X194578931Y-133152377D01*
X194483693Y-133104758D01*
X194436074Y-133009520D01*
X194436074Y-132819043D01*
X194483693Y-132723805D01*
X194578931Y-132676186D01*
X194674169Y-132676186D01*
X194769407Y-133152377D01*
X194436074Y-132390472D02*
X194436074Y-132009520D01*
X194102740Y-132247615D02*
X194959883Y-132247615D01*
X195055121Y-132199996D01*
X195102740Y-132104758D01*
X195102740Y-132009520D01*
X195102740Y-131247615D02*
X194578931Y-131247615D01*
X194483693Y-131295234D01*
X194436074Y-131390472D01*
X194436074Y-131580948D01*
X194483693Y-131676186D01*
X195055121Y-131247615D02*
X195102740Y-131342853D01*
X195102740Y-131580948D01*
X195055121Y-131676186D01*
X194959883Y-131723805D01*
X194864645Y-131723805D01*
X194769407Y-131676186D01*
X194721788Y-131580948D01*
X194721788Y-131342853D01*
X194674169Y-131247615D01*
X194436074Y-130771424D02*
X195436074Y-130771424D01*
X194483693Y-130771424D02*
X194436074Y-130676186D01*
X194436074Y-130485710D01*
X194483693Y-130390472D01*
X194531312Y-130342853D01*
X194626550Y-130295234D01*
X194912264Y-130295234D01*
X195007502Y-130342853D01*
X195055121Y-130390472D01*
X195102740Y-130485710D01*
X195102740Y-130676186D01*
X195055121Y-130771424D01*
X194721788Y-129104758D02*
X194721788Y-128342853D01*
X194197979Y-127152377D02*
X194150360Y-127104758D01*
X194102740Y-127009520D01*
X194102740Y-126771424D01*
X194150360Y-126676186D01*
X194197979Y-126628567D01*
X194293217Y-126580948D01*
X194388455Y-126580948D01*
X194531312Y-126628567D01*
X195102740Y-127199996D01*
X195102740Y-126580948D01*
X194102740Y-125961900D02*
X194102740Y-125866662D01*
X194150360Y-125771424D01*
X194197979Y-125723805D01*
X194293217Y-125676186D01*
X194483693Y-125628567D01*
X194721788Y-125628567D01*
X194912264Y-125676186D01*
X195007502Y-125723805D01*
X195055121Y-125771424D01*
X195102740Y-125866662D01*
X195102740Y-125961900D01*
X195055121Y-126057139D01*
X195007502Y-126104758D01*
X194912264Y-126152377D01*
X194721788Y-126199996D01*
X194483693Y-126199996D01*
X194293217Y-126152377D01*
X194197979Y-126104758D01*
X194150360Y-126057139D01*
X194102740Y-125961900D01*
X194197979Y-125247615D02*
X194150360Y-125199996D01*
X194102740Y-125104758D01*
X194102740Y-124866662D01*
X194150360Y-124771424D01*
X194197979Y-124723805D01*
X194293217Y-124676186D01*
X194388455Y-124676186D01*
X194531312Y-124723805D01*
X195102740Y-125295234D01*
X195102740Y-124676186D01*
X194102740Y-124342853D02*
X194102740Y-123723805D01*
X194483693Y-124057139D01*
X194483693Y-123914281D01*
X194531312Y-123819043D01*
X194578931Y-123771424D01*
X194674169Y-123723805D01*
X194912264Y-123723805D01*
X195007502Y-123771424D01*
X195055121Y-123819043D01*
X195102740Y-123914281D01*
X195102740Y-124199996D01*
X195055121Y-124295234D01*
X195007502Y-124342853D01*
D11*
X161002605Y-84457182D02*
X161002605Y-81457182D01*
X162145462Y-81457182D01*
X162431177Y-81600040D01*
X162574034Y-81742897D01*
X162716891Y-82028611D01*
X162716891Y-82457182D01*
X162574034Y-82742897D01*
X162431177Y-82885754D01*
X162145462Y-83028611D01*
X161002605Y-83028611D01*
X165431177Y-84457182D02*
X164002605Y-84457182D01*
X164002605Y-81457182D01*
X168145462Y-84171468D02*
X168002605Y-84314325D01*
X167574034Y-84457182D01*
X167288320Y-84457182D01*
X166859748Y-84314325D01*
X166574034Y-84028611D01*
X166431177Y-83742897D01*
X166288320Y-83171468D01*
X166288320Y-82742897D01*
X166431177Y-82171468D01*
X166574034Y-81885754D01*
X166859748Y-81600040D01*
X167288320Y-81457182D01*
X167574034Y-81457182D01*
X168002605Y-81600040D01*
X168145462Y-81742897D01*
X171145462Y-84171468D02*
X171002605Y-84314325D01*
X170574034Y-84457182D01*
X170288320Y-84457182D01*
X169859748Y-84314325D01*
X169574034Y-84028611D01*
X169431177Y-83742897D01*
X169288320Y-83171468D01*
X169288320Y-82742897D01*
X169431177Y-82171468D01*
X169574034Y-81885754D01*
X169859748Y-81600040D01*
X170288320Y-81457182D01*
X170574034Y-81457182D01*
X171002605Y-81600040D01*
X171145462Y-81742897D01*
X173716891Y-81457182D02*
X173145462Y-81457182D01*
X172859748Y-81600040D01*
X172716891Y-81742897D01*
X172431177Y-82171468D01*
X172288320Y-82742897D01*
X172288320Y-83885754D01*
X172431177Y-84171468D01*
X172574034Y-84314325D01*
X172859748Y-84457182D01*
X173431177Y-84457182D01*
X173716891Y-84314325D01*
X173859748Y-84171468D01*
X174002605Y-83885754D01*
X174002605Y-83171468D01*
X173859748Y-82885754D01*
X173716891Y-82742897D01*
X173431177Y-82600040D01*
X172859748Y-82600040D01*
X172574034Y-82742897D01*
X172431177Y-82885754D01*
X172288320Y-83171468D01*
X175716891Y-82742897D02*
X175431177Y-82600040D01*
X175288320Y-82457182D01*
X175145462Y-82171468D01*
X175145462Y-82028611D01*
X175288320Y-81742897D01*
X175431177Y-81600040D01*
X175716891Y-81457182D01*
X176288320Y-81457182D01*
X176574034Y-81600040D01*
X176716891Y-81742897D01*
X176859748Y-82028611D01*
X176859748Y-82171468D01*
X176716891Y-82457182D01*
X176574034Y-82600040D01*
X176288320Y-82742897D01*
X175716891Y-82742897D01*
X175431177Y-82885754D01*
X175288320Y-83028611D01*
X175145462Y-83314325D01*
X175145462Y-83885754D01*
X175288320Y-84171468D01*
X175431177Y-84314325D01*
X175716891Y-84457182D01*
X176288320Y-84457182D01*
X176574034Y-84314325D01*
X176716891Y-84171468D01*
X176859748Y-83885754D01*
X176859748Y-83314325D01*
X176716891Y-83028611D01*
X176574034Y-82885754D01*
X176288320Y-82742897D01*
X180431177Y-84457182D02*
X180431177Y-81457182D01*
X181574034Y-81457182D01*
X181859748Y-81600040D01*
X182002605Y-81742897D01*
X182145462Y-82028611D01*
X182145462Y-82457182D01*
X182002605Y-82742897D01*
X181859748Y-82885754D01*
X181574034Y-83028611D01*
X180431177Y-83028611D01*
X184859748Y-84457182D02*
X183431177Y-84457182D01*
X183431177Y-81457182D01*
X185859748Y-81457182D02*
X185859748Y-83885754D01*
X186002605Y-84171468D01*
X186145462Y-84314325D01*
X186431177Y-84457182D01*
X187002605Y-84457182D01*
X187288320Y-84314325D01*
X187431177Y-84171468D01*
X187574034Y-83885754D01*
X187574034Y-81457182D01*
X190574034Y-81600040D02*
X190288320Y-81457182D01*
X189859748Y-81457182D01*
X189431177Y-81600040D01*
X189145462Y-81885754D01*
X189002605Y-82171468D01*
X188859748Y-82742897D01*
X188859748Y-83171468D01*
X189002605Y-83742897D01*
X189145462Y-84028611D01*
X189431177Y-84314325D01*
X189859748Y-84457182D01*
X190145462Y-84457182D01*
X190574034Y-84314325D01*
X190716891Y-84171468D01*
X190716891Y-83171468D01*
X190145462Y-83171468D01*
X173359748Y-86307182D02*
X175074034Y-86307182D01*
X174216891Y-89307182D02*
X174216891Y-86307182D01*
X176645462Y-86307182D02*
X177216891Y-86307182D01*
X177502605Y-86450040D01*
X177788320Y-86735754D01*
X177931177Y-87307182D01*
X177931177Y-88307182D01*
X177788320Y-88878611D01*
X177502605Y-89164325D01*
X177216891Y-89307182D01*
X176645462Y-89307182D01*
X176359748Y-89164325D01*
X176074034Y-88878611D01*
X175931177Y-88307182D01*
X175931177Y-87307182D01*
X176074034Y-86735754D01*
X176359748Y-86450040D01*
X176645462Y-86307182D01*
X159716891Y-94157182D02*
X159716891Y-91157182D01*
X160859748Y-91157182D01*
X161145462Y-91300040D01*
X161288320Y-91442897D01*
X161431177Y-91728611D01*
X161431177Y-92157182D01*
X161288320Y-92442897D01*
X161145462Y-92585754D01*
X160859748Y-92728611D01*
X159716891Y-92728611D01*
X164288320Y-91300040D02*
X164002605Y-91157182D01*
X163574034Y-91157182D01*
X163145462Y-91300040D01*
X162859748Y-91585754D01*
X162716891Y-91871468D01*
X162574034Y-92442897D01*
X162574034Y-92871468D01*
X162716891Y-93442897D01*
X162859748Y-93728611D01*
X163145462Y-94014325D01*
X163574034Y-94157182D01*
X163859748Y-94157182D01*
X164288320Y-94014325D01*
X164431177Y-93871468D01*
X164431177Y-92871468D01*
X163859748Y-92871468D01*
X165574034Y-93300040D02*
X167002605Y-93300040D01*
X165288320Y-94157182D02*
X166288320Y-91157182D01*
X167288320Y-94157182D01*
X169574034Y-91157182D02*
X169002605Y-91157182D01*
X168716891Y-91300040D01*
X168574034Y-91442897D01*
X168288320Y-91871468D01*
X168145462Y-92442897D01*
X168145462Y-93585754D01*
X168288320Y-93871468D01*
X168431177Y-94014325D01*
X168716891Y-94157182D01*
X169288320Y-94157182D01*
X169574034Y-94014325D01*
X169716891Y-93871468D01*
X169859748Y-93585754D01*
X169859748Y-92871468D01*
X169716891Y-92585754D01*
X169574034Y-92442897D01*
X169288320Y-92300040D01*
X168716891Y-92300040D01*
X168431177Y-92442897D01*
X168288320Y-92585754D01*
X168145462Y-92871468D01*
X171574034Y-92442897D02*
X171288320Y-92300040D01*
X171145462Y-92157182D01*
X171002605Y-91871468D01*
X171002605Y-91728611D01*
X171145462Y-91442897D01*
X171288320Y-91300040D01*
X171574034Y-91157182D01*
X172145462Y-91157182D01*
X172431177Y-91300040D01*
X172574034Y-91442897D01*
X172716891Y-91728611D01*
X172716891Y-91871468D01*
X172574034Y-92157182D01*
X172431177Y-92300040D01*
X172145462Y-92442897D01*
X171574034Y-92442897D01*
X171288320Y-92585754D01*
X171145462Y-92728611D01*
X171002605Y-93014325D01*
X171002605Y-93585754D01*
X171145462Y-93871468D01*
X171288320Y-94014325D01*
X171574034Y-94157182D01*
X172145462Y-94157182D01*
X172431177Y-94014325D01*
X172574034Y-93871468D01*
X172716891Y-93585754D01*
X172716891Y-93014325D01*
X172574034Y-92728611D01*
X172431177Y-92585754D01*
X172145462Y-92442897D01*
X176145462Y-94014325D02*
X176574034Y-94157182D01*
X177288320Y-94157182D01*
X177574034Y-94014325D01*
X177716891Y-93871468D01*
X177859748Y-93585754D01*
X177859748Y-93300040D01*
X177716891Y-93014325D01*
X177574034Y-92871468D01*
X177288320Y-92728611D01*
X176716891Y-92585754D01*
X176431177Y-92442897D01*
X176288320Y-92300040D01*
X176145462Y-92014325D01*
X176145462Y-91728611D01*
X176288320Y-91442897D01*
X176431177Y-91300040D01*
X176716891Y-91157182D01*
X177431177Y-91157182D01*
X177859748Y-91300040D01*
X179716891Y-91157182D02*
X180288320Y-91157182D01*
X180574034Y-91300040D01*
X180859748Y-91585754D01*
X181002605Y-92157182D01*
X181002605Y-93157182D01*
X180859748Y-93728611D01*
X180574034Y-94014325D01*
X180288320Y-94157182D01*
X179716891Y-94157182D01*
X179431177Y-94014325D01*
X179145462Y-93728611D01*
X179002605Y-93157182D01*
X179002605Y-92157182D01*
X179145462Y-91585754D01*
X179431177Y-91300040D01*
X179716891Y-91157182D01*
X184002605Y-93871468D02*
X183859748Y-94014325D01*
X183431177Y-94157182D01*
X183145462Y-94157182D01*
X182716891Y-94014325D01*
X182431177Y-93728611D01*
X182288320Y-93442897D01*
X182145462Y-92871468D01*
X182145462Y-92442897D01*
X182288320Y-91871468D01*
X182431177Y-91585754D01*
X182716891Y-91300040D01*
X183145462Y-91157182D01*
X183431177Y-91157182D01*
X183859748Y-91300040D01*
X184002605Y-91442897D01*
X185288320Y-94157182D02*
X185288320Y-91157182D01*
X187002605Y-94157182D02*
X185716891Y-92442897D01*
X187002605Y-91157182D02*
X185288320Y-92871468D01*
X188288320Y-92585754D02*
X189288320Y-92585754D01*
X189716891Y-94157182D02*
X188288320Y-94157182D01*
X188288320Y-91157182D01*
X189716891Y-91157182D01*
X190574034Y-91157182D02*
X192288320Y-91157182D01*
X191431177Y-94157182D02*
X191431177Y-91157182D01*
D10*
X171306432Y-133869180D02*
X171306432Y-134583466D01*
X171258813Y-134726323D01*
X171163575Y-134821561D01*
X171020718Y-134869180D01*
X170925480Y-134869180D01*
X172258813Y-134869180D02*
X171782622Y-134869180D01*
X171782622Y-133869180D01*
X173163575Y-134773942D02*
X173115956Y-134821561D01*
X172973099Y-134869180D01*
X172877860Y-134869180D01*
X172735003Y-134821561D01*
X172639765Y-134726323D01*
X172592146Y-134631085D01*
X172544527Y-134440609D01*
X172544527Y-134297752D01*
X172592146Y-134107276D01*
X172639765Y-134012038D01*
X172735003Y-133916800D01*
X172877860Y-133869180D01*
X172973099Y-133869180D01*
X173115956Y-133916800D01*
X173163575Y-133964419D01*
X173877860Y-133869180D02*
X173877860Y-134583466D01*
X173830241Y-134726323D01*
X173735003Y-134821561D01*
X173592146Y-134869180D01*
X173496908Y-134869180D01*
X174830241Y-134869180D02*
X174354051Y-134869180D01*
X174354051Y-133869180D01*
X175735003Y-134773942D02*
X175687384Y-134821561D01*
X175544527Y-134869180D01*
X175449289Y-134869180D01*
X175306432Y-134821561D01*
X175211194Y-134726323D01*
X175163575Y-134631085D01*
X175115956Y-134440609D01*
X175115956Y-134297752D01*
X175163575Y-134107276D01*
X175211194Y-134012038D01*
X175306432Y-133916800D01*
X175449289Y-133869180D01*
X175544527Y-133869180D01*
X175687384Y-133916800D01*
X175735003Y-133964419D01*
X176449289Y-133869180D02*
X176449289Y-134583466D01*
X176401670Y-134726323D01*
X176306432Y-134821561D01*
X176163575Y-134869180D01*
X176068337Y-134869180D01*
X177401670Y-134869180D02*
X176925480Y-134869180D01*
X176925480Y-133869180D01*
X178306432Y-134773942D02*
X178258813Y-134821561D01*
X178115956Y-134869180D01*
X178020718Y-134869180D01*
X177877860Y-134821561D01*
X177782622Y-134726323D01*
X177735003Y-134631085D01*
X177687384Y-134440609D01*
X177687384Y-134297752D01*
X177735003Y-134107276D01*
X177782622Y-134012038D01*
X177877860Y-133916800D01*
X178020718Y-133869180D01*
X178115956Y-133869180D01*
X178258813Y-133916800D01*
X178306432Y-133964419D01*
X179020718Y-133869180D02*
X179020718Y-134583466D01*
X178973099Y-134726323D01*
X178877860Y-134821561D01*
X178735003Y-134869180D01*
X178639765Y-134869180D01*
X179973099Y-134869180D02*
X179496908Y-134869180D01*
X179496908Y-133869180D01*
X180877860Y-134773942D02*
X180830241Y-134821561D01*
X180687384Y-134869180D01*
X180592146Y-134869180D01*
X180449289Y-134821561D01*
X180354051Y-134726323D01*
X180306432Y-134631085D01*
X180258813Y-134440609D01*
X180258813Y-134297752D01*
X180306432Y-134107276D01*
X180354051Y-134012038D01*
X180449289Y-133916800D01*
X180592146Y-133869180D01*
X180687384Y-133869180D01*
X180830241Y-133916800D01*
X180877860Y-133964419D01*
D12*
%TO.C,U2*%
X191525080Y-104496680D02*
X176900080Y-104496680D01*
X191525080Y-135746680D02*
X191525080Y-104496680D01*
X160275080Y-135746680D02*
X191525080Y-135746680D01*
X160275080Y-105496680D02*
X160275080Y-135746680D01*
X161275080Y-104496680D02*
X160275080Y-105496680D01*
X174900080Y-104496680D02*
X161275080Y-104496680D01*
D10*
X175138175Y-103049060D02*
X175138175Y-103858584D01*
X175185794Y-103953822D01*
X175233413Y-104001441D01*
X175328651Y-104049060D01*
X175519127Y-104049060D01*
X175614365Y-104001441D01*
X175661984Y-103953822D01*
X175709603Y-103858584D01*
X175709603Y-103049060D01*
X176138175Y-103144299D02*
X176185794Y-103096680D01*
X176281032Y-103049060D01*
X176519127Y-103049060D01*
X176614365Y-103096680D01*
X176661984Y-103144299D01*
X176709603Y-103239537D01*
X176709603Y-103334775D01*
X176661984Y-103477632D01*
X176090556Y-104049060D01*
X176709603Y-104049060D01*
%TD*%
M02*
