%TF.GenerationSoftware,KiCad,Pcbnew,(5.1.6)-1*%
%TF.CreationDate,2023-06-21T17:15:11-04:00*%
%TF.ProjectId,PLCC68-to-PGA,504c4343-3638-42d7-946f-2d5047412e6b,rev?*%
%TF.SameCoordinates,Original*%
%TF.FileFunction,Soldermask,Top*%
%TF.FilePolarity,Negative*%
%FSLAX46Y46*%
G04 Gerber Fmt 4.6, Leading zero omitted, Abs format (unit mm)*
G04 Created by KiCad (PCBNEW (5.1.6)-1) date 2023-06-21 17:15:11*
%MOMM*%
%LPD*%
G01*
G04 APERTURE LIST*
%ADD10C,1.522400*%
%ADD11R,1.522400X1.522400*%
G04 APERTURE END LIST*
D10*
%TO.C,U2*%
X175900080Y-109961680D03*
X173360080Y-109961680D03*
X170820080Y-109961680D03*
X168280080Y-109961680D03*
X178440080Y-109961680D03*
X180980080Y-109961680D03*
X183520080Y-109961680D03*
X186060080Y-109961680D03*
D11*
X175900080Y-107421680D03*
D10*
X173360080Y-107421680D03*
X170820080Y-107421680D03*
X168280080Y-107421680D03*
X165740080Y-107421680D03*
X178440080Y-107421680D03*
X180980080Y-107421680D03*
X183520080Y-107421680D03*
X165740080Y-109961680D03*
X165740080Y-112501680D03*
X165740080Y-115041680D03*
X165740080Y-117581680D03*
X165740080Y-120121680D03*
X165740080Y-122661680D03*
X165740080Y-125201680D03*
X165740080Y-127741680D03*
X163200080Y-109961680D03*
X163200080Y-112501680D03*
X163200080Y-115041680D03*
X163200080Y-117581680D03*
X163200080Y-120121680D03*
X163200080Y-122661680D03*
X163200080Y-125201680D03*
X163200080Y-127741680D03*
X163200080Y-130281680D03*
X165740080Y-130281680D03*
X168280080Y-130281680D03*
X170820080Y-130281680D03*
X173360080Y-130281680D03*
X175900080Y-130281680D03*
X178440080Y-130281680D03*
X180980080Y-130281680D03*
X183520080Y-130281680D03*
X188600080Y-130281680D03*
X165740080Y-132821680D03*
X168280080Y-132821680D03*
X170820080Y-132821680D03*
X173360080Y-132821680D03*
X175900080Y-132821680D03*
X178440080Y-132821680D03*
X180980080Y-132821680D03*
X183520080Y-132821680D03*
X186060080Y-132821680D03*
X186060080Y-130281680D03*
X186060080Y-127741680D03*
X186060080Y-125201680D03*
X186060080Y-122661680D03*
X186060080Y-120121680D03*
X186060080Y-117581680D03*
X186060080Y-115041680D03*
X186060080Y-112501680D03*
X186060080Y-107421680D03*
X188600080Y-127741680D03*
X188600080Y-125201680D03*
X188600080Y-122661680D03*
X188600080Y-120121680D03*
X188600080Y-117581680D03*
X188600080Y-115041680D03*
X188600080Y-112501680D03*
X188600080Y-109961680D03*
%TD*%
M02*
